<svg width="18" height="18" viewBox="0 0 18 18" fill="none" xmlns="http://www.w3.org/2000/svg">
<path fill-rule="evenodd" clip-rule="evenodd" d="M0 3C0 2.20435 0.316071 1.44129 0.87868 0.87868C1.44129 0.316071 2.20435 0 3 0H5C5.79565 0 6.55871 0.316071 7.12132 0.87868C7.68393 1.44129 8 2.20435 8 3V5C8 5.79565 7.68393 6.55871 7.12132 7.12132C6.55871 7.68393 5.79565 8 5 8H3C2.20435 8 1.44129 7.68393 0.87868 7.12132C0.316071 6.55871 0 5.79565 0 5V3ZM3 2C2.73478 2 2.48043 2.10536 2.29289 2.29289C2.10536 2.48043 2 2.73478 2 3V5C2 5.26522 2.10536 5.51957 2.29289 5.70711C2.48043 5.89464 2.73478 6 3 6H5C5.26522 6 5.51957 5.89464 5.70711 5.70711C5.89464 5.51957 6 5.26522 6 5V3C6 2.73478 5.89464 2.48043 5.70711 2.29289C5.51957 2.10536 5.26522 2 5 2H3ZM10 3C10 2.20435 10.3161 1.44129 10.8787 0.87868C11.4413 0.316071 12.2044 0 13 0H15C15.7956 0 16.5587 0.316071 17.1213 0.87868C17.6839 1.44129 18 2.20435 18 3V5C18 5.79565 17.6839 6.55871 17.1213 7.12132C16.5587 7.68393 15.7956 8 15 8H13C12.2044 8 11.4413 7.68393 10.8787 7.12132C10.3161 6.55871 10 5.79565 10 5V3ZM13 2C12.7348 2 12.4804 2.10536 12.2929 2.29289C12.1054 2.48043 12 2.73478 12 3V5C12 5.26522 12.1054 5.51957 12.2929 5.70711C12.4804 5.89464 12.7348 6 13 6H15C15.2652 6 15.5196 5.89464 15.7071 5.70711C15.8946 5.51957 16 5.26522 16 5V3C16 2.73478 15.8946 2.48043 15.7071 2.29289C15.5196 2.10536 15.2652 2 15 2H13ZM0 13C0 12.2044 0.316071 11.4413 0.87868 10.8787C1.44129 10.3161 2.20435 10 3 10H5C5.79565 10 6.55871 10.3161 7.12132 10.8787C7.68393 11.4413 8 12.2044 8 13V15C8 15.7956 7.68393 16.5587 7.12132 17.1213C6.55871 17.6839 5.79565 18 5 18H3C2.20435 18 1.44129 17.6839 0.87868 17.1213C0.316071 16.5587 0 15.7956 0 15V13ZM3 12C2.73478 12 2.48043 12.1054 2.29289 12.2929C2.10536 12.4804 2 12.7348 2 13V15C2 15.2652 2.10536 15.5196 2.29289 15.7071C2.48043 15.8946 2.73478 16 3 16H5C5.26522 16 5.51957 15.8946 5.70711 15.7071C5.89464 15.5196 6 15.2652 6 15V13C6 12.7348 5.89464 12.4804 5.70711 12.2929C5.51957 12.1054 5.26522 12 5 12H3ZM10 13C10 12.2044 10.3161 11.4413 10.8787 10.8787C11.4413 10.3161 12.2044 10 13 10H15C15.7956 10 16.5587 10.3161 17.1213 10.8787C17.6839 11.4413 18 12.2044 18 13V15C18 15.7956 17.6839 16.5587 17.1213 17.1213C16.5587 17.6839 15.7956 18 15 18H13C12.2044 18 11.4413 17.6839 10.8787 17.1213C10.3161 16.5587 10 15.7956 10 15V13ZM13 12C12.7348 12 12.4804 12.1054 12.2929 12.2929C12.1054 12.4804 12 12.7348 12 13V15C12 15.2652 12.1054 15.5196 12.2929 15.7071C12.4804 15.8946 12.7348 16 13 16H15C15.2652 16 15.5196 15.8946 15.7071 15.7071C15.8946 15.5196 16 15.2652 16 15V13C16 12.7348 15.8946 12.4804 15.7071 12.2929C15.5196 12.1054 15.2652 12 15 12H13Z" fill="white"/>
</svg>
