<svg width="101" height="100" viewBox="0 0 101 100" fill="none" xmlns="http://www.w3.org/2000/svg">
<path d="M42.5085 8.33325C37.5418 8.33325 32.7785 10.3063 29.2665 13.8183C25.7545 17.3303 23.7814 22.0936 23.7814 27.0603C23.7814 32.0271 25.7545 36.7904 29.2665 40.3024C32.7785 43.8144 37.5418 45.7874 42.5085 45.7874C47.4753 45.7874 52.2386 43.8144 55.7506 40.3024C59.2626 36.7904 61.2356 32.0271 61.2356 27.0603C61.2356 22.0936 59.2626 17.3303 55.7506 13.8183C52.2386 10.3063 47.4753 8.33325 42.5085 8.33325ZM44.3919 54.9041C45.4419 53.3791 44.4419 51.0624 42.5877 51.0666H40.8794L37.5669 51.0708C30.1762 51.0708 23.0882 54.0067 17.8622 59.2327C12.6361 64.4587 9.7002 71.5467 9.7002 78.9374C9.7002 81.9543 10.8986 84.8475 13.0319 86.9808C15.1651 89.114 18.0584 90.3124 21.0752 90.3124H42.8294C44.7044 90.3124 45.7169 87.9207 44.6294 86.3916C41.3138 81.7473 39.5362 76.1812 39.546 70.4749C39.546 64.6916 41.3377 59.3291 44.3919 54.9041Z" fill="#E63946"/>
<path fill-rule="evenodd" clip-rule="evenodd" d="M88.1709 70.479C88.1709 73.2614 87.6229 76.0165 86.5581 78.5871C85.4933 81.1577 83.9327 83.4934 81.9652 85.4608C79.9978 87.4283 77.6621 88.9889 75.0915 90.0537C72.5209 91.1185 69.7658 91.6665 66.9834 91.6665C64.201 91.6665 61.4459 91.1185 58.8753 90.0537C56.3047 88.9889 53.969 87.4283 52.0016 85.4608C50.0341 83.4934 48.4735 81.1577 47.4087 78.5871C46.3439 76.0165 45.7959 73.2614 45.7959 70.479C45.7959 64.8597 48.0281 59.4706 52.0016 55.4972C55.975 51.5238 61.3641 49.2915 66.9834 49.2915C72.6027 49.2915 77.9918 51.5238 81.9652 55.4972C85.9386 59.4706 88.1709 64.8597 88.1709 70.479ZM76.8126 60.6457C77.1036 60.936 77.3345 61.2808 77.492 61.6605C77.6496 62.0401 77.7307 62.4471 77.7307 62.8582C77.7307 63.2692 77.6496 63.6762 77.492 64.0559C77.3345 64.4355 77.1036 64.7804 76.8126 65.0707L72.8751 69.004C72.6811 69.1975 72.5271 69.4274 72.4221 69.6805C72.3171 69.9336 72.263 70.205 72.263 70.479C72.263 70.753 72.3171 71.0244 72.4221 71.2775C72.5271 71.5306 72.6811 71.7605 72.8751 71.954L76.8126 75.8915C77.3646 76.4839 77.6651 77.2674 77.6508 78.077C77.6365 78.8866 77.3085 79.659 76.736 80.2316C76.1634 80.8041 75.391 81.1321 74.5814 81.1464C73.7718 81.1607 72.9883 80.8602 72.3959 80.3082L68.4584 76.3707C68.0677 75.9801 67.5379 75.7607 66.9855 75.7607C66.4331 75.7607 65.9032 75.9801 65.5126 76.3707L61.5751 80.3082C60.9827 80.8602 60.1991 81.1607 59.3896 81.1464C58.58 81.1321 57.8075 80.8041 57.235 80.2316C56.6624 79.659 56.3345 78.8866 56.3202 78.077C56.3059 77.2674 56.6064 76.4839 57.1584 75.8915L61.0917 71.954C61.4823 71.5633 61.7017 71.0335 61.7017 70.4811C61.7017 69.9287 61.4823 69.3989 61.0917 69.0082L57.1542 65.0707C56.5847 64.4816 56.2693 63.6923 56.2761 62.873C56.2828 62.0536 56.6111 61.2696 57.1902 60.69C57.7693 60.1103 58.553 59.7813 59.3723 59.7738C60.1917 59.7663 60.9812 60.0809 61.5709 60.6498L65.5126 64.5873C65.9032 64.9779 66.4331 65.1973 66.9855 65.1973C67.5379 65.1973 68.0677 64.9779 68.4584 64.5873L72.3959 60.6498C72.9818 60.0646 73.7761 59.7359 74.6042 59.7359C75.4324 59.7359 76.2266 60.0605 76.8126 60.6457Z" fill="#E63946"/>
</svg>
