<svg width="24" height="28" viewBox="0 0 24 28" fill="none" xmlns="http://www.w3.org/2000/svg">
<g clip-path="url(#clip0_2183_2995)">
<path d="M24 23.4795H18.0154C18.0154 22.9782 18.0105 22.4901 18.0256 22.0026C18.0256 21.9645 18.1675 21.9009 18.2445 21.8999C18.9271 21.8923 19.6098 21.8966 20.2924 21.8971C20.8936 21.8971 21.4953 21.889 22.0965 21.9004C22.3261 21.9047 22.4036 21.8362 22.4027 21.6048C22.3949 18.4294 22.3923 15.2539 22.3949 12.0782C22.3949 8.69661 22.3958 5.31516 22.3978 1.93386C22.3978 1.58838 22.3978 1.58885 22.0375 1.59076C21.5821 1.59313 21.1266 1.60644 20.6722 1.59076C20.4523 1.58363 20.3962 1.65776 20.3967 1.8602C20.4031 3.74489 20.4006 5.62959 20.4006 7.51523V8.10972C20.2846 8.11733 20.1837 8.12873 20.0827 8.12873C14.7037 8.12873 9.32477 8.12873 3.94604 8.12873C3.61936 8.12873 3.61497 8.12873 3.61497 7.80226C3.61497 5.82252 3.61497 3.84231 3.62472 1.8621C3.62472 1.64445 3.56767 1.57697 3.33997 1.5841C2.86116 1.60264 2.38137 1.60311 1.90207 1.58885C1.67925 1.5822 1.60952 1.64778 1.60952 1.86733C1.61781 3.13425 1.60952 4.40116 1.60952 5.66903C1.61147 10.935 1.61424 16.2012 1.61781 21.4675C1.61781 21.9878 1.61294 21.8952 2.07127 21.898C3.30632 21.9042 4.54138 21.898 5.77693 21.8937C5.84031 21.8937 5.90419 21.8994 6.00414 21.9047V22.923C6.00414 23.4933 6.00414 23.4933 5.41514 23.4933C3.70078 23.4933 1.98643 23.4881 0.27207 23.4933C0.0560695 23.4933 -0.00195312 23.432 -0.00195312 23.2243C0.00357286 15.646 0.00568597 8.06743 0.00438574 0.488737C0.00438574 0.00592143 0.00438611 0.00924762 0.507576 0.00877241C8.26703 0.00655475 16.0267 0.00338609 23.7864 -0.000732422H23.998L24 23.4795ZM13.1644 3.54768C13.257 3.33431 13.3594 3.09433 13.4657 2.85482C13.5247 2.71986 13.4915 2.62387 13.3443 2.57492C13.1756 2.51885 13.0098 2.45041 12.8372 2.41097C12.0941 2.24085 11.3559 2.21328 10.646 2.54688C10.3799 2.67061 10.1636 2.8771 10.0311 3.13384C9.89873 3.39058 9.85772 3.68296 9.91459 3.96492C10.0262 4.53517 10.4543 4.78276 10.9717 4.92675C11.3539 5.0332 11.7435 5.11351 12.1253 5.2209C12.2891 5.26843 12.4525 5.34398 12.4413 5.55783C12.43 5.77168 12.2365 5.79876 12.0834 5.85721C12.0281 5.87161 11.9709 5.87801 11.9137 5.87622C11.3917 5.9153 10.8698 5.79933 10.4168 5.54357C10.2788 5.46611 10.2032 5.47514 10.1452 5.63339C10.0746 5.81903 9.99174 5.99999 9.89704 6.17513C9.8122 6.3348 9.82146 6.44933 10.0165 6.50018C10.4997 6.62516 10.978 6.79766 11.47 6.85564C12.0717 6.92597 12.6724 6.84376 13.1868 6.47166C13.9235 5.938 13.8948 4.87638 13.12 4.43395C12.9279 4.32418 12.7007 4.2662 12.4837 4.20585C12.1424 4.11081 11.7898 4.03905 11.4466 3.94448C11.3057 3.90552 11.1355 3.82901 11.1877 3.65936C11.2338 3.52366 11.3317 3.41049 11.4612 3.34334C11.6186 3.27811 11.7917 3.25768 11.9605 3.28441C12.3525 3.34619 12.7426 3.45264 13.1644 3.54768ZM13.8348 2.38341C13.8339 2.41399 13.8364 2.44457 13.8421 2.47465C14.4472 3.86465 15.0513 5.25512 15.6662 6.64132C15.6959 6.70832 15.8202 6.76962 15.9036 6.7739C16.1962 6.78958 16.4887 6.77057 16.7813 6.7815C16.9368 6.7872 17.0148 6.73113 17.0738 6.59474C17.5994 5.38707 18.1285 4.17987 18.6609 2.97315C18.7414 2.78924 18.8189 2.60343 18.9179 2.37105C18.4947 2.37105 18.1236 2.36393 17.753 2.37866C17.6916 2.38103 17.6068 2.46942 17.5785 2.53643C17.264 3.23927 16.9578 3.94591 16.6491 4.6516C16.575 4.82125 16.5029 4.99138 16.4083 5.20095C16.3595 5.12111 16.3381 5.0907 16.3234 5.05838C15.9753 4.23246 15.6291 3.40512 15.2776 2.57967C15.2468 2.50744 15.18 2.39577 15.1313 2.39386C14.7037 2.37676 14.277 2.38341 13.8348 2.38341ZM8.7712 3.83994C8.99549 3.64272 9.19247 3.45359 9.4075 3.28679C9.57864 3.15373 9.55134 3.05869 9.40506 2.93038C8.66685 2.27934 7.80383 2.17669 6.87741 2.38959C6.59427 2.44979 6.32676 2.56579 6.09131 2.73046C5.85585 2.89513 5.65744 3.10499 5.50827 3.34714C4.86465 4.37693 5.10698 5.69374 6.05973 6.39516C7.0349 7.11463 8.67173 7.0039 9.4665 6.16895C9.57035 6.05966 9.55524 5.98742 9.44309 5.89666C9.26854 5.75409 9.09885 5.60725 8.93795 5.45138C8.82093 5.33828 8.74828 5.30882 8.60737 5.44758C8.23095 5.81397 7.76823 5.91329 7.25968 5.75552C6.76819 5.60298 6.53659 5.23611 6.47418 4.7647C6.40738 4.26002 6.53317 3.80667 7.00175 3.52535C7.47032 3.24402 7.95888 3.25115 8.42452 3.55243C8.54447 3.62989 8.64686 3.73444 8.7712 3.83994Z" fill="#0857A3"/>
<path d="M16.5351 23.4974L12.12 28L7.57715 23.4955H8.25977C8.6986 23.4955 9.13743 23.4831 9.57625 23.5002C9.81468 23.5097 9.83565 23.3966 9.83516 23.2151C9.83321 21.5452 9.83435 19.8751 9.83858 18.2049V17.6746C9.94731 17.6694 10.0185 17.6632 10.0902 17.6632C11.3813 17.6632 12.6744 17.667 13.9636 17.6575C14.1659 17.6575 14.2044 17.7221 14.2035 17.9027C14.196 19.6594 14.1934 21.4164 14.1957 23.1737C14.1957 23.5002 14.2 23.4983 14.5326 23.4978C15.2093 23.4964 15.8895 23.4974 16.5351 23.4974Z" fill="#0857A3"/>
<path d="M14.1746 12.5636H9.84436V10.448C9.92189 10.4413 9.99064 10.4299 10.0633 10.4299C11.3539 10.4299 12.6446 10.4347 13.9352 10.4299C14.1302 10.4299 14.2044 10.4737 14.199 10.678C14.1844 11.2316 14.1931 11.7857 14.1912 12.3412C14.1912 12.4068 14.1814 12.4762 14.1746 12.5636Z" fill="#0857A3"/>
<path d="M14.1917 14.0649C14.1917 14.7369 14.1951 15.3927 14.1844 16.048C14.1844 16.0955 14.0796 16.1792 14.0201 16.1825C13.7529 16.1972 13.4837 16.1877 13.2161 16.1887C12.1843 16.1887 11.1521 16.1887 10.1204 16.202C9.88145 16.2058 9.81904 16.1364 9.82538 15.9088C9.84196 15.301 9.83075 14.6922 9.83075 14.0649H14.1917Z" fill="#0857A3"/>
<path d="M7.96813 17.6794V19.8107H7.67168C6.4137 19.8107 5.15524 19.8107 3.89727 19.8221C3.68614 19.8221 3.59399 19.7789 3.60082 19.5517C3.61691 18.99 3.61008 18.4283 3.61105 17.8666C3.61105 17.7445 3.62422 17.6594 3.7939 17.6599C5.14939 17.6651 6.50488 17.6599 7.86037 17.6599C7.89673 17.6639 7.93274 17.6704 7.96813 17.6794Z" fill="#0857A3"/>
<path d="M7.97647 14.0701V16.1758C7.88578 16.1801 7.80679 16.1872 7.7278 16.1872C6.44593 16.191 5.16407 16.1905 3.8822 16.2005C3.67937 16.2005 3.59355 16.153 3.5994 15.9368C3.615 15.3755 3.60866 14.8143 3.60818 14.2526C3.60818 14.1286 3.62476 14.0454 3.79151 14.0459C5.15675 14.0492 6.51712 14.0459 7.87993 14.0459C7.91289 14.0507 7.94525 14.0588 7.97647 14.0701Z" fill="#0857A3"/>
<path d="M16.0553 16.1819V14.061H20.3807V16.1819H16.0553Z" fill="#0857A3"/>
<path d="M7.97983 12.5766H7.6473C6.40395 12.5766 5.1606 12.5766 3.91774 12.5884C3.67395 12.5884 3.59399 12.5262 3.60325 12.2829C3.62373 11.7449 3.61788 11.206 3.61203 10.6672C3.61203 10.4832 3.67492 10.4267 3.86752 10.4295C5.15118 10.4381 6.43515 10.4381 7.71946 10.4295C7.93887 10.4295 7.99251 10.4899 7.98617 10.698C7.97008 11.2279 7.98032 11.7587 7.98032 12.2895L7.97983 12.5766Z" fill="#0857A3"/>
<path d="M16.0529 12.5623V10.4495H20.3792V12.5623H16.0529Z" fill="#0857A3"/>
<path d="M20.3865 19.7998H16.0582V17.6785H20.3856L20.3865 19.7998Z" fill="#0857A3"/>
<path d="M13.1643 3.54756C12.743 3.45252 12.3544 3.34703 11.9595 3.2805C11.7907 3.25376 11.6176 3.27419 11.4602 3.33942C11.3307 3.40657 11.2328 3.51975 11.1867 3.65544C11.1345 3.82699 11.3047 3.9035 11.4456 3.94056C11.7869 4.03561 12.1394 4.10641 12.4827 4.20193C12.6996 4.26228 12.9269 4.32026 13.119 4.43003C13.8937 4.87246 13.9225 5.93408 13.1858 6.46775C12.6714 6.83984 12.0707 6.92205 11.469 6.85172C10.977 6.79374 10.4987 6.62124 10.0155 6.49626C9.82044 6.44541 9.81117 6.33088 9.89601 6.17121C9.99072 5.99607 10.0736 5.81511 10.1442 5.62947C10.2022 5.47122 10.2778 5.4622 10.4158 5.53966C10.8688 5.79541 11.3907 5.91138 11.9127 5.8723C11.9697 5.87435 12.0267 5.86827 12.0819 5.85425C12.235 5.79579 12.4276 5.77393 12.4398 5.55486C12.4519 5.33579 12.2876 5.26403 12.1238 5.21794C11.742 5.11054 11.3524 5.03023 10.9702 4.92378C10.4528 4.78122 10.0247 4.53173 9.91308 3.96195C9.85621 3.68 9.89722 3.38761 10.0296 3.13087C10.1621 2.87414 10.3784 2.66764 10.6445 2.54392C11.3544 2.21127 12.0926 2.23788 12.8357 2.408C13.0083 2.44745 13.1741 2.51588 13.3428 2.57195C13.489 2.61947 13.5232 2.71689 13.4642 2.85185C13.3608 3.09326 13.257 3.33324 13.1643 3.54756Z" fill="white"/>
<path d="M13.8348 2.38317C14.277 2.38317 14.7037 2.37651 15.1293 2.39172C15.1815 2.39172 15.2468 2.5053 15.2756 2.57753C15.6272 3.40297 15.9733 4.23032 16.3215 5.05624C16.3361 5.09045 16.359 5.12087 16.4063 5.1988C16.4985 4.98923 16.5731 4.81863 16.6472 4.64946C16.9558 3.94377 17.262 3.23712 17.5765 2.53429C17.6068 2.46728 17.6896 2.37889 17.7511 2.37651C18.1216 2.36178 18.4927 2.36891 18.9159 2.36891C18.8184 2.60129 18.7394 2.7871 18.659 2.97101C18.1294 4.17805 17.6003 5.38524 17.0714 6.5926C17.0119 6.72899 16.9339 6.78506 16.7788 6.77936C16.4863 6.76843 16.1937 6.78744 15.9012 6.77176C15.8178 6.76748 15.6935 6.70618 15.6637 6.63917C15.0489 5.25298 14.4448 3.86251 13.8397 2.47251C13.8349 2.44297 13.8333 2.41303 13.8348 2.38317Z" fill="white"/>
<path d="M8.77119 3.83979C8.64588 3.73429 8.54446 3.62975 8.42452 3.55466C7.95887 3.25338 7.47031 3.24625 7.00174 3.52758C6.53317 3.8089 6.40737 4.26035 6.47417 4.76455C6.53658 5.23596 6.76672 5.60283 7.25967 5.75537C7.76822 5.91314 8.23094 5.81382 8.60736 5.44743C8.74827 5.31057 8.82092 5.33814 8.93794 5.45124C9.09885 5.60711 9.26853 5.75537 9.44309 5.89651C9.55523 5.98728 9.57035 6.05951 9.46649 6.16881C8.67172 7.00376 7.03636 7.11448 6.05972 6.39501C5.10698 5.6936 4.86465 4.37678 5.50826 3.347C5.65744 3.10485 5.85585 2.89499 6.0913 2.73032C6.32675 2.56565 6.59427 2.44965 6.8774 2.38944C7.80382 2.17655 8.66685 2.27919 9.40505 2.93023C9.55133 3.05854 9.57863 3.15358 9.40749 3.28664C9.19246 3.45249 8.99548 3.64258 8.77119 3.83979Z" fill="white"/>
</g>
<defs>
<clipPath id="clip0_2183_2995">
<rect width="24" height="28" fill="white"/>
</clipPath>
</defs>
</svg>
