<svg width="226" height="226" viewBox="0 0 226 226" fill="none" xmlns="http://www.w3.org/2000/svg">
<path d="M113.25 215.318C171.801 215.318 219.266 187.914 219.266 154.11C219.266 120.305 171.801 92.9005 113.25 92.9005C54.6993 92.9005 7.2345 120.305 7.2345 154.11C7.2345 187.914 54.6993 215.318 113.25 215.318Z" fill="#F0F0F0"/>
<path d="M91.3125 200.491C111.503 200.491 127.871 191.042 127.871 179.386C127.871 167.73 111.503 158.281 91.3125 158.281C71.1221 158.281 54.7545 167.73 54.7545 179.386C54.7545 191.042 71.1221 200.491 91.3125 200.491Z" fill="#E0E0E0"/>
<path d="M195.276 152.98L190.988 150.505C190.988 150.505 189.939 141.325 190.637 134.215C191.618 124.225 198.071 112.201 205.766 115.027C213.461 117.853 202.238 128.023 199.74 136.497C197.243 144.97 195.276 152.98 195.276 152.98Z" fill="#0857A3"/>
<path opacity="0.15" d="M195.276 152.98L190.988 150.505C190.988 150.505 189.939 141.325 190.637 134.215C191.618 124.225 198.071 112.201 205.766 115.027C213.461 117.853 202.238 128.023 199.74 136.497C197.243 144.97 195.276 152.98 195.276 152.98Z" fill="black"/>
<path d="M193.021 151.941C193.09 151.937 193.154 151.907 193.201 151.856C193.247 151.806 193.271 151.739 193.269 151.671C192.517 129.472 203.569 118.303 203.677 118.195C203.726 118.146 203.754 118.08 203.754 118.011C203.754 117.941 203.726 117.875 203.677 117.826C203.654 117.802 203.625 117.783 203.594 117.77C203.563 117.757 203.529 117.75 203.495 117.75C203.461 117.75 203.428 117.757 203.396 117.77C203.365 117.783 203.337 117.802 203.313 117.826C203.196 117.934 191.986 129.265 192.747 151.689C192.748 151.723 192.756 151.757 192.771 151.789C192.785 151.82 192.806 151.849 192.831 151.872C192.857 151.896 192.887 151.914 192.92 151.925C192.952 151.937 192.987 151.942 193.021 151.941Z" fill="white"/>
<path d="M197.971 154.524L194.92 152.764C194.92 152.764 194.398 146.464 197.49 138.814C200.19 132.154 206.85 126.624 210.207 127.785C213.564 128.946 213.478 131.326 211.84 133.824C210.202 136.321 200.253 142.266 197.971 154.524Z" fill="#0857A3"/>
<path d="M196.361 153.858C196.429 153.856 196.495 153.828 196.544 153.78C196.593 153.731 196.62 153.665 196.622 153.597C196.559 139.557 209.739 130.071 209.874 129.976C209.902 129.957 209.926 129.932 209.944 129.903C209.963 129.874 209.975 129.842 209.98 129.809C209.986 129.775 209.984 129.74 209.976 129.707C209.968 129.674 209.953 129.643 209.933 129.616C209.893 129.56 209.833 129.523 209.765 129.511C209.698 129.499 209.629 129.514 209.573 129.553C209.438 129.648 196.041 139.296 196.1 153.597C196.1 153.666 196.127 153.732 196.176 153.781C196.225 153.83 196.291 153.858 196.361 153.858Z" fill="white"/>
<path d="M36.597 147.467L40.557 144.794C40.557 144.794 42.2985 134.444 40.6785 125.314C38.4015 112.507 29.55 108.25 26.4 109.6C23.25 110.95 22.575 114.761 28.4565 122.069C31.944 126.367 36.4755 135.542 36.597 147.467Z" fill="#0857A3"/>
<g opacity="0.15">
<path d="M36.597 147.467L40.557 144.794C40.557 144.794 42.2985 134.444 40.6785 125.314C38.4015 112.507 29.55 108.25 26.4 109.6C23.25 110.95 22.575 114.761 28.4565 122.069C31.944 126.367 36.4755 135.542 36.597 147.467Z" fill="black"/>
</g>
<path d="M37.956 142.337H37.9155C37.875 142.335 37.8356 142.324 37.7997 142.305C37.7638 142.286 37.7323 142.26 37.7072 142.228C37.6822 142.196 37.6641 142.159 37.6543 142.12C37.6444 142.081 37.6429 142.04 37.65 142C39.081 129.944 33.9915 116.858 28.452 111.652C28.3987 111.598 28.3688 111.525 28.3688 111.449C28.3688 111.374 28.3987 111.301 28.452 111.247C28.4784 111.22 28.5099 111.199 28.5447 111.184C28.5794 111.169 28.6168 111.162 28.6545 111.162C28.6922 111.162 28.7295 111.169 28.7643 111.184C28.7991 111.199 28.8306 111.22 28.857 111.247C34.5 116.548 39.684 129.85 38.235 142.081C38.2265 142.15 38.1938 142.214 38.1426 142.26C38.0915 142.307 38.0254 142.335 37.956 142.337Z" fill="white"/>
<path d="M26.229 154.46C25.599 154.838 23.763 153.475 23.2545 153.146C22.383 152.577 21.6731 151.793 21.1935 150.869C20.6554 149.822 20.4558 148.633 20.622 147.467C20.7142 146.859 20.848 146.257 21.0225 145.667C21.18 145.078 21.3375 144.488 21.4725 143.894C21.6721 143.317 21.7487 142.703 21.6975 142.094C21.522 140.893 20.4375 140.069 19.4475 139.363C18.3585 138.575 17.1975 137.536 17.1975 136.087C17.253 134.948 17.6888 133.861 18.435 133C19.11 132.1 19.92 131.317 20.5275 130.376C21.0026 129.725 21.245 128.932 21.216 128.126C21.1378 127.63 20.9602 127.154 20.694 126.727C20.163 125.791 19.4745 124.927 19.101 123.932C18.7275 122.938 18.7545 121.66 19.551 120.917C20.1855 120.31 21.153 120.211 22.0305 120.251C22.8574 120.334 23.6561 120.596 24.3705 121.021C26.697 122.258 28.065 124.958 30.5265 125.899C31.476 126.259 32.511 126.322 33.4965 126.565C34.482 126.808 35.499 127.289 35.9715 128.185C36.903 129.962 35.2785 132.203 35.9445 134.089C36.5385 135.763 38.1945 136.375 39.1305 137.873C39.5104 138.539 39.668 139.308 39.5805 140.069C39.5277 141.354 39.2394 142.619 38.73 143.8C38.1441 145.025 37.4828 146.212 36.75 147.355C36.75 147.355 26.3235 154.402 26.229 154.46Z" fill="#0857A3"/>
<path d="M32.3129 150.73C32.2751 150.729 32.2378 150.721 32.2031 150.706C32.1683 150.691 32.1369 150.67 32.1106 150.643C32.0843 150.615 32.0636 150.583 32.0496 150.548C32.0357 150.513 32.0288 150.475 32.0294 150.438C32.2814 139.044 26.6744 126.588 22.7054 122.988C22.649 122.937 22.615 122.866 22.6108 122.79C22.6066 122.714 22.6325 122.639 22.6829 122.583C22.7093 122.556 22.7408 122.534 22.7756 122.52C22.8104 122.505 22.8477 122.497 22.8854 122.497C22.9232 122.497 22.9605 122.505 22.9953 122.52C23.03 122.534 23.0615 122.556 23.0879 122.583C27.1379 126.228 32.8574 138.9 32.6009 150.451C32.6004 150.488 32.5924 150.525 32.5776 150.559C32.5629 150.593 32.5415 150.624 32.5147 150.65C32.488 150.676 32.4564 150.696 32.4218 150.71C32.3872 150.724 32.3502 150.731 32.3129 150.73Z" fill="white"/>
<path d="M30.2115 136.847C30.1849 136.854 30.1571 136.854 30.1305 136.847C26.4495 135.785 21.8865 135.677 21.8415 135.673C21.8039 135.672 21.7668 135.664 21.7323 135.649C21.6978 135.634 21.6667 135.612 21.6407 135.585C21.6148 135.558 21.5945 135.526 21.581 135.491C21.5676 135.455 21.5613 135.418 21.5625 135.38C21.5618 135.342 21.569 135.305 21.5836 135.27C21.5983 135.235 21.62 135.203 21.6475 135.177C21.675 135.15 21.7076 135.13 21.7434 135.117C21.7791 135.104 21.8171 135.099 21.855 135.101C21.9 135.101 26.535 135.214 30.288 136.294C30.3606 136.316 30.4215 136.365 30.4578 136.432C30.494 136.498 30.5025 136.577 30.4815 136.649C30.464 136.707 30.4282 136.758 30.3795 136.793C30.3308 136.829 30.2719 136.848 30.2115 136.847Z" fill="white"/>
<path d="M136.272 139.633L134.566 138.647C134.282 138.463 134.046 138.214 133.876 137.921C133.706 137.627 133.608 137.298 133.59 136.96V66.076C133.609 65.7382 133.706 65.4096 133.875 65.1165C134.044 64.8234 134.279 64.574 134.562 64.3885L181.969 37.0195C182.271 36.8665 182.605 36.7867 182.944 36.7867C183.282 36.7867 183.616 36.8665 183.918 37.0195L185.623 38.005C185.908 38.1895 186.144 38.4385 186.314 38.7317C186.484 39.025 186.582 39.3542 186.6 39.6925V110.576C186.581 110.914 186.484 111.243 186.315 111.536C186.146 111.829 185.911 112.078 185.628 112.264L138.22 139.637C137.918 139.791 137.584 139.87 137.246 139.87C136.907 139.869 136.573 139.788 136.272 139.633Z" fill="#455A64"/>
<path d="M186.6 39.535C186.533 39.031 186.123 38.8465 185.633 39.13L138.221 66.5035C137.934 66.6834 137.697 66.9325 137.532 67.228L133.874 65.1175C134.037 64.8198 134.274 64.5688 134.562 64.3885L181.97 37.0195C182.272 36.8665 182.605 36.7867 182.944 36.7867C183.282 36.7867 183.616 36.8665 183.918 37.0195L185.624 38.005C185.887 38.1746 186.111 38.3991 186.279 38.6632C186.448 38.9272 186.557 39.2246 186.6 39.535Z" fill="#455A64"/>
<path d="M138.054 139.714C137.766 139.831 137.456 139.884 137.146 139.871C136.835 139.858 136.531 139.778 136.254 139.637L134.544 138.647C134.261 138.462 134.026 138.213 133.857 137.919C133.688 137.626 133.591 137.298 133.572 136.96V66.0759C133.584 65.7375 133.681 65.4077 133.856 65.1174L137.514 67.2279C137.336 67.5186 137.237 67.8504 137.226 68.1909V139.075C137.244 139.633 137.595 139.889 138.054 139.714Z" fill="#263238"/>
<path d="M137.244 68.2002V139.075C137.244 139.696 137.694 139.948 138.221 139.638L185.628 112.264C185.911 112.079 186.146 111.829 186.315 111.536C186.484 111.243 186.582 110.914 186.6 110.577V39.6928C186.6 39.0718 186.15 38.8198 185.628 39.1303L138.221 66.5037C137.935 66.6891 137.698 66.9396 137.528 67.2345C137.358 67.5294 137.261 67.8604 137.244 68.2002Z" fill="#37474F"/>
<path d="M126.174 95.2C125.562 94.8355 122.722 93.22 122.574 93.1345C122.458 93.0654 122.36 92.9713 122.285 92.859C122.211 92.7467 122.162 92.6191 122.144 92.4856C122.125 92.3522 122.137 92.2162 122.178 92.0879C122.219 91.9595 122.288 91.842 122.38 91.744L133.59 79.72L137.244 81.817L126.039 93.85C125.951 93.9437 125.884 94.0551 125.843 94.1769C125.801 94.2986 125.787 94.4278 125.799 94.5557C125.812 94.6836 125.852 94.8073 125.917 94.9184C125.982 95.0295 126.069 95.1255 126.174 95.2Z" fill="#455A64"/>
<path d="M137.244 81.8304L126.039 93.8499C125.915 93.9828 125.833 94.1503 125.806 94.3303C125.779 94.5102 125.807 94.6943 125.886 94.858C125.966 95.0218 126.093 95.1577 126.251 95.2476C126.409 95.3376 126.591 95.3775 126.773 95.3619L137.244 94.4979V81.8304Z" fill="#37474F"/>
<path d="M161.922 60.19C167.448 56.9995 171.925 59.587 171.925 65.968C171.925 72.349 167.448 80.1025 161.922 83.293C156.396 86.4835 151.918 83.896 151.918 77.5195C151.918 71.143 156.396 63.3805 161.922 60.19Z" fill="#0857A3"/>
<path d="M161.85 65.212C163.65 64.177 165.095 65.014 165.095 67.084C165.033 68.2093 164.708 69.3042 164.144 70.28C163.58 71.2557 162.794 72.0849 161.85 72.7C160.05 73.735 158.601 72.898 158.601 70.828C158.663 69.7024 158.989 68.6072 159.554 67.6314C160.118 66.6556 160.905 65.8267 161.85 65.212Z" fill="white"/>
<path d="M168.249 76.2462C168.249 72.8487 165.859 71.4672 162.916 73.1682L161.076 74.2302C158.133 75.9312 155.743 80.0802 155.743 83.4687V84.4002C156.299 84.5778 156.879 84.6674 157.462 84.6657C159.041 84.6121 160.578 84.1467 161.922 83.3157C164.48 81.7401 166.644 79.6006 168.249 77.0607V76.2462Z" fill="white"/>
<path d="M155.586 114.879L168.258 107.562C168.798 107.251 169.234 107.503 169.234 108.124V112.206C169.216 112.544 169.118 112.873 168.948 113.166C168.779 113.46 168.542 113.709 168.258 113.893L155.586 121.21C155.046 121.521 154.609 121.269 154.609 120.648V116.566C154.628 116.228 154.726 115.899 154.896 115.605C155.065 115.312 155.302 115.063 155.586 114.879Z" fill="#0857A3"/>
<path d="M149.381 105.762L174.45 91.2807C175.094 90.9072 175.62 91.2087 175.62 91.9557V93.4722C175.598 93.878 175.481 94.2729 175.277 94.6247C175.074 94.9766 174.791 95.2755 174.45 95.4972L149.367 109.978C148.724 110.352 148.202 110.05 148.202 109.303V107.8C148.222 107.391 148.34 106.993 148.545 106.639C148.75 106.284 149.036 105.983 149.381 105.762Z" fill="#FAFAFA"/>
<path d="M152.315 95.2812C152.657 95.0832 152.922 95.0518 153.111 95.1913C153.3 95.3308 153.395 95.6413 153.395 96.1183C153.404 96.5536 153.307 96.9847 153.111 97.3738C152.934 97.7254 152.657 98.0167 152.315 98.2108L151.64 98.6023V100.056C151.638 100.106 151.626 100.155 151.604 100.2C151.588 100.24 151.559 100.275 151.523 100.299L151.181 100.497C151.169 100.506 151.155 100.51 151.14 100.51C151.126 100.51 151.111 100.506 151.1 100.497C151.075 100.466 151.064 100.427 151.068 100.389V96.1812C151.068 96.1315 151.079 96.0823 151.1 96.0373C151.117 95.9972 151.145 95.9629 151.181 95.9383L152.315 95.2812ZM151.64 97.7878L152.292 97.4098C152.45 97.3208 152.583 97.194 152.679 97.0408C152.782 96.86 152.831 96.6543 152.823 96.4468C152.823 96.2038 152.774 96.0643 152.679 96.0238C152.612 96.0075 152.543 96.0068 152.476 96.0216C152.409 96.0364 152.346 96.0664 152.292 96.1093L151.64 96.4873V97.7878Z" fill="#FAFAFA"/>
<path d="M155.28 93.5665C155.325 93.5395 155.361 93.5395 155.383 93.5665C155.412 93.6069 155.432 93.6529 155.442 93.7015L156.481 97.2205C156.481 97.2205 156.481 97.2475 156.481 97.261C156.481 97.3112 156.468 97.3604 156.445 97.405C156.43 97.4457 156.401 97.4804 156.364 97.504L156.058 97.6795C156.004 97.711 155.964 97.7155 155.941 97.6795C155.92 97.6569 155.904 97.629 155.896 97.5985L155.712 96.982L154.362 97.756L154.182 98.584C154.169 98.6288 154.153 98.6725 154.132 98.7145C154.11 98.7694 154.068 98.8142 154.015 98.8405L153.709 99.016C153.698 99.0255 153.684 99.0308 153.669 99.0308C153.654 99.0308 153.64 99.0255 153.628 99.016C153.605 98.9869 153.594 98.9498 153.597 98.9125C153.594 98.8961 153.594 98.8794 153.597 98.863L154.632 94.147C154.644 94.0777 154.664 94.0098 154.69 93.9445C154.712 93.8972 154.749 93.8579 154.794 93.832L155.28 93.5665ZM155.514 96.2935L155.064 94.705L154.614 96.829L155.514 96.2935Z" fill="#FAFAFA"/>
<path d="M158.057 91.897C158.207 91.8019 158.379 91.7448 158.556 91.7304C158.682 91.7192 158.807 91.7475 158.916 91.8115C159.015 91.8756 159.092 91.9681 159.137 92.077C159.186 92.1877 159.213 92.3069 159.218 92.428C159.221 92.4779 159.21 92.5278 159.186 92.572C159.17 92.6127 159.142 92.6473 159.105 92.671L158.808 92.8419C158.759 92.8689 158.723 92.8734 158.7 92.8419C158.672 92.8236 158.649 92.7989 158.633 92.77C158.615 92.7295 158.588 92.693 158.556 92.6629C158.524 92.6327 158.485 92.6094 158.444 92.5945C158.307 92.5748 158.167 92.6104 158.057 92.6934C157.984 92.7405 157.914 92.7932 157.85 92.851C157.783 92.9124 157.724 92.982 157.674 93.058C157.626 93.1312 157.587 93.2097 157.557 93.2919C157.531 93.3702 157.517 93.4523 157.517 93.535C157.511 93.6107 157.525 93.6865 157.557 93.7554C157.571 93.7796 157.59 93.8 157.614 93.8149C157.637 93.8298 157.664 93.8388 157.692 93.8409C157.775 93.8554 157.861 93.8554 157.944 93.8409L158.336 93.7554C158.481 93.7122 158.634 93.694 158.786 93.7015C158.894 93.7011 159 93.7358 159.087 93.8005C159.169 93.8697 159.229 93.9623 159.258 94.0659C159.302 94.2117 159.322 94.3638 159.317 94.5159C159.316 94.717 159.287 94.917 159.231 95.11C159.176 95.3084 159.096 95.4989 158.993 95.677C158.884 95.8594 158.754 96.0286 158.606 96.1809C158.454 96.3379 158.282 96.4728 158.093 96.5815C157.954 96.6658 157.802 96.7252 157.643 96.757C157.513 96.7819 157.379 96.771 157.256 96.7255C157.143 96.6732 157.05 96.5865 156.99 96.478C156.917 96.3391 156.876 96.185 156.873 96.028C156.873 95.9767 156.883 95.9261 156.905 95.8794C156.924 95.8411 156.954 95.8086 156.99 95.785L157.287 95.614C157.332 95.587 157.368 95.5779 157.395 95.5914C157.422 95.6049 157.44 95.6274 157.458 95.6679C157.477 95.7142 157.501 95.7581 157.53 95.7985C157.558 95.8377 157.597 95.8675 157.643 95.884C157.702 95.8976 157.763 95.8976 157.823 95.884C157.918 95.8614 158.009 95.8234 158.093 95.7715C158.18 95.7217 158.263 95.6645 158.34 95.6005C158.491 95.4807 158.612 95.3264 158.691 95.1505C158.727 95.0603 158.745 94.964 158.745 94.8669C158.749 94.8317 158.746 94.796 158.736 94.7619C158.726 94.7279 158.709 94.6962 158.687 94.669C158.662 94.6475 158.634 94.6316 158.602 94.6223C158.571 94.6129 158.539 94.6104 158.507 94.615C158.404 94.6192 158.303 94.6358 158.205 94.6645C158.088 94.6915 157.953 94.723 157.796 94.75C157.675 94.7801 157.55 94.7892 157.427 94.777C157.329 94.7707 157.237 94.7309 157.166 94.6645C157.088 94.5882 157.033 94.4915 157.008 94.3855C156.972 94.2291 156.955 94.0689 156.959 93.9085C156.958 93.7103 156.987 93.5132 157.044 93.3235C157.098 93.1282 157.176 92.9406 157.278 92.7655C157.375 92.5915 157.493 92.4298 157.629 92.284C157.752 92.1353 157.896 92.005 158.057 91.897Z" fill="#FAFAFA"/>
<path d="M161.013 90.196C161.163 90.0981 161.334 90.0393 161.513 90.025C161.638 90.0144 161.764 90.0426 161.873 90.106C161.969 90.1718 162.044 90.264 162.089 90.3715C162.138 90.4823 162.165 90.6014 162.17 90.7225C162.175 90.7727 162.164 90.8232 162.138 90.8665C162.122 90.9073 162.094 90.9419 162.057 90.9655L161.76 91.1365C161.715 91.1635 161.679 91.1725 161.652 91.1365C161.623 91.1185 161.601 91.0916 161.589 91.06C161.548 90.9811 161.479 90.9201 161.396 90.889C161.328 90.8792 161.26 90.8829 161.194 90.8999C161.129 90.9169 161.067 90.9468 161.013 90.988C160.938 91.0339 160.867 91.0867 160.802 91.1455C160.736 91.2071 160.679 91.2767 160.631 91.3525C160.581 91.4248 160.542 91.5035 160.514 91.5865C160.486 91.6646 160.47 91.7466 160.469 91.8295C160.463 91.9053 160.477 91.9811 160.509 92.05C160.523 92.0742 160.542 92.0946 160.566 92.1095C160.589 92.1244 160.616 92.1334 160.644 92.1355C160.727 92.1501 160.813 92.1501 160.896 92.1355L161.288 92.05C161.434 92.0093 161.586 91.991 161.738 91.996C161.846 91.9951 161.952 92.0298 162.039 92.095C162.121 92.1653 162.182 92.2573 162.215 92.3605C162.254 92.5071 162.272 92.6587 162.269 92.8105C162.268 93.0116 162.239 93.2116 162.183 93.4045C162.128 93.603 162.048 93.7935 161.945 93.9715C161.836 94.1558 161.706 94.3264 161.558 94.48C161.406 94.6331 161.235 94.7662 161.049 94.876C160.91 94.9601 160.758 95.0195 160.599 95.0515C160.471 95.0761 160.339 95.0652 160.217 95.02C160.102 94.9694 160.007 94.8824 159.947 94.7725C159.873 94.6341 159.834 94.4795 159.834 94.3225C159.829 94.2724 159.84 94.2219 159.866 94.1785C159.881 94.1378 159.91 94.1032 159.947 94.0795L160.244 93.9085C160.289 93.8815 160.329 93.8725 160.352 93.886C160.367 93.8931 160.381 93.9037 160.392 93.917C160.403 93.9302 160.411 93.9458 160.415 93.9625C160.435 94.0079 160.459 94.0516 160.487 94.093C160.516 94.1326 160.557 94.1623 160.604 94.1785C160.663 94.1922 160.724 94.1922 160.784 94.1785C160.879 94.156 160.97 94.118 161.054 94.066C161.139 94.0151 161.22 93.958 161.297 93.895C161.376 93.8333 161.445 93.7606 161.504 93.679C161.562 93.6013 161.61 93.5167 161.648 93.427C161.684 93.3369 161.702 93.2406 161.702 93.1435C161.706 93.1083 161.703 93.0725 161.693 93.0385C161.683 93.0045 161.666 92.9728 161.643 92.9455C161.619 92.9241 161.59 92.9082 161.559 92.8988C161.528 92.8895 161.495 92.887 161.463 92.8915C161.363 92.8977 161.263 92.9143 161.166 92.941C161.049 92.968 160.91 92.9995 160.757 93.0265C160.634 93.0567 160.508 93.0658 160.383 93.0535C160.285 93.0484 160.193 93.0085 160.122 92.941C160.046 92.8644 159.993 92.7676 159.969 92.662C159.929 92.5078 159.911 92.3488 159.915 92.1895C159.917 91.9901 159.945 91.7917 160.001 91.6C160.056 91.4054 160.135 91.2181 160.235 91.042C160.332 90.8669 160.451 90.7051 160.59 90.5605C160.711 90.4178 160.854 90.2948 161.013 90.196Z" fill="#FAFAFA"/>
<path d="M164.293 90.7587L163.929 92.9142C163.918 92.979 163.9 93.0424 163.875 93.1032C163.858 93.1517 163.824 93.1929 163.781 93.2202L163.438 93.4182C163.393 93.4452 163.362 93.4452 163.339 93.4182C163.309 93.3812 163.292 93.3354 163.29 93.2877L162.75 89.4852C162.75 89.4852 162.75 89.4492 162.75 89.4357C162.751 89.3856 162.764 89.3365 162.786 89.2917C162.803 89.2517 162.831 89.2173 162.867 89.1927L163.178 89.0127C163.203 89.0022 163.233 89.0022 163.259 89.0127C163.286 89.0127 163.303 89.0487 163.312 89.1207L163.668 91.6812L163.979 89.7597C163.987 89.7118 164 89.665 164.019 89.6202C164.037 89.5633 164.075 89.5151 164.127 89.4852L164.473 89.2827C164.523 89.2557 164.559 89.2602 164.582 89.2827C164.601 89.3113 164.615 89.3434 164.622 89.3772L164.937 90.9387L165.292 87.9687C165.297 87.9103 165.314 87.8535 165.342 87.8022C165.363 87.7686 165.391 87.7395 165.423 87.7167L165.734 87.5367C165.745 87.5279 165.759 87.5232 165.774 87.5232C165.789 87.5232 165.803 87.5279 165.814 87.5367C165.827 87.5514 165.837 87.5686 165.843 87.5871C165.849 87.6056 165.852 87.6252 165.851 87.6447C165.852 87.6627 165.852 87.6807 165.851 87.6987L165.311 92.1222C165.301 92.1869 165.285 92.2504 165.261 92.3112C165.24 92.3592 165.206 92.4 165.162 92.4282L164.815 92.6262C164.775 92.6487 164.744 92.6487 164.721 92.6262C164.698 92.5848 164.68 92.5411 164.667 92.4957L164.293 90.7587Z" fill="#FAFAFA"/>
<path d="M166.399 88.8504C166.409 88.6009 166.44 88.3526 166.489 88.1079C166.541 87.8688 166.619 87.6363 166.723 87.4149C166.823 87.1997 166.95 86.9985 167.101 86.8164C167.255 86.6358 167.44 86.4835 167.646 86.3664C167.804 86.2589 167.99 86.1981 168.181 86.1909C168.324 86.1925 168.461 86.2489 168.564 86.3484C168.673 86.4709 168.752 86.6174 168.793 86.7759C168.852 86.9826 168.883 87.1958 168.888 87.4104C168.888 87.4914 168.888 87.5814 168.888 87.6804C168.888 87.7794 168.888 87.8829 168.888 87.9909C168.888 88.0989 168.888 88.2024 168.888 88.3014C168.888 88.4004 168.888 88.4949 168.888 88.5804C168.878 88.8285 168.848 89.0753 168.798 89.3184C168.746 89.5568 168.669 89.7891 168.568 90.0114C168.466 90.226 168.338 90.427 168.186 90.6099C168.032 90.7888 167.85 90.9409 167.646 91.0599C167.484 91.1667 167.296 91.2274 167.101 91.2354C167.031 91.2368 166.962 91.224 166.897 91.1977C166.832 91.1714 166.773 91.1322 166.723 91.0824C166.606 90.9564 166.525 90.8009 166.489 90.6324C166.436 90.4249 166.406 90.2121 166.399 89.9979C166.399 89.9169 166.399 89.8269 166.399 89.7279C166.399 89.6289 166.399 89.5254 166.399 89.4174C166.399 89.3094 166.399 89.2104 166.399 89.1069C166.399 89.0034 166.395 88.9314 166.399 88.8504ZM168.316 87.7749C168.326 87.6648 168.314 87.5538 168.28 87.4487C168.246 87.3435 168.191 87.2463 168.118 87.1629C168.001 87.0594 167.839 87.0639 167.646 87.1629C167.436 87.2864 167.269 87.4719 167.169 87.6939C167.041 87.9563 166.974 88.2437 166.971 88.5354C166.971 88.7019 166.971 88.8864 166.971 89.0889C166.971 89.2914 166.971 89.4714 166.971 89.6334C166.961 89.7435 166.973 89.8545 167.007 89.9597C167.041 90.0649 167.096 90.1621 167.169 90.2454C167.286 90.3444 167.448 90.3354 167.646 90.2229C167.853 90.0986 168.017 89.9152 168.118 89.6964C168.246 89.4357 168.314 89.1497 168.316 88.8594C168.316 88.6884 168.316 88.5039 168.316 88.3014C168.316 88.0989 168.321 87.9369 168.316 87.7749Z" fill="#FAFAFA"/>
<path d="M170.85 84.5712C171.205 84.3687 171.471 84.3372 171.655 84.4857C171.765 84.6062 171.846 84.7494 171.894 84.905C171.941 85.0606 171.953 85.2247 171.93 85.3857C171.934 85.6914 171.887 85.9955 171.79 86.2857C171.699 86.556 171.557 86.8065 171.372 87.0237L171.957 88.2972C171.959 88.3182 171.959 88.3393 171.957 88.3602C171.957 88.4008 171.948 88.4408 171.93 88.4772C171.918 88.5099 171.896 88.5381 171.867 88.5582L171.507 88.7652C171.448 88.7967 171.408 88.8012 171.381 88.7652C171.357 88.7416 171.337 88.7142 171.322 88.6842L170.769 87.4827L170.206 87.8067V89.3277C170.207 89.3775 170.196 89.4267 170.175 89.4717C170.156 89.5108 170.129 89.5448 170.094 89.5707L169.752 89.7687C169.741 89.7782 169.726 89.7835 169.711 89.7835C169.697 89.7835 169.682 89.7782 169.671 89.7687C169.658 89.7549 169.648 89.7386 169.642 89.7208C169.636 89.703 169.633 89.684 169.635 89.6652V85.4577C169.636 85.4077 169.649 85.3585 169.671 85.3137C169.687 85.273 169.715 85.2383 169.752 85.2147L170.85 84.5712ZM170.215 86.9922L170.85 86.6502C171.005 86.5636 171.138 86.4419 171.237 86.2947C171.341 86.1213 171.391 85.9208 171.381 85.7187C171.381 85.4757 171.331 85.3407 171.237 85.3137C171.1 85.2951 170.961 85.3306 170.85 85.4127L170.238 85.7637L170.215 86.9922Z" fill="#FAFAFA"/>
<path d="M173.865 82.8385C174.028 82.732 174.215 82.6671 174.41 82.6495C174.55 82.6443 174.688 82.6944 174.792 82.789C174.911 82.9144 174.994 83.07 175.031 83.239C175.091 83.4622 175.124 83.6919 175.13 83.923C175.13 84.238 175.13 84.562 175.13 84.8905C175.12 85.1585 175.087 85.425 175.031 85.687C174.979 85.9305 174.901 86.1675 174.797 86.3935C174.696 86.6011 174.569 86.7948 174.419 86.9695C174.268 87.1484 174.089 87.3006 173.888 87.4195L172.821 88C172.81 88.0096 172.795 88.0148 172.781 88.0148C172.766 88.0148 172.751 88.0096 172.74 88C172.727 87.9864 172.717 87.9701 172.711 87.9522C172.704 87.9344 172.702 87.9154 172.704 87.8965V83.689C172.705 83.639 172.718 83.5898 172.74 83.545C172.756 83.5043 172.784 83.4697 172.821 83.446L173.865 82.8385ZM174.558 84.238C174.556 84.1162 174.538 83.9951 174.504 83.878C174.483 83.7894 174.438 83.7084 174.373 83.644C174.345 83.6158 174.312 83.5936 174.274 83.5789C174.237 83.5642 174.197 83.5573 174.158 83.5585C174.045 83.5661 173.936 83.6033 173.843 83.6665L173.276 83.9905V86.9245L173.865 86.587C173.979 86.5206 174.081 86.4354 174.167 86.335C174.25 86.2363 174.321 86.1275 174.378 86.011C174.434 85.8871 174.476 85.7573 174.504 85.624C174.535 85.4851 174.553 85.3434 174.558 85.201C174.572 84.8725 174.572 84.553 174.558 84.238Z" fill="#FAFAFA"/>
<path d="M112.071 17.5255C112.848 17.6983 113.596 17.9801 114.294 18.3625C114.962 18.7217 115.561 19.1972 116.063 19.7665C116.542 20.3142 116.898 20.9588 117.107 21.6565C117.319 22.4033 117.334 23.1924 117.152 23.947C117.031 24.5453 116.794 25.114 116.454 25.621C116.144 26.0545 115.774 26.4423 115.356 26.773C114.945 27.0918 114.507 27.3735 114.047 27.6145L112.751 28.303C112.36 28.5066 111.989 28.7462 111.644 29.0185C111.33 29.2586 111.091 29.5812 110.951 29.95C110.882 30.1185 110.768 30.2649 110.622 30.373C110.553 30.4268 110.472 30.464 110.386 30.482C110.301 30.4999 110.212 30.498 110.127 30.4765L108.219 30.0535C108.127 30.0342 108.04 29.9969 107.963 29.9435C107.885 29.8902 107.82 29.8221 107.769 29.743C107.715 29.6695 107.679 29.5844 107.664 29.4945C107.65 29.4046 107.656 29.3124 107.684 29.2255C107.837 28.6346 108.108 28.0806 108.48 27.5965C108.819 27.1683 109.213 26.7856 109.65 26.458C110.076 26.1461 110.528 25.8706 111 25.6345C111.45 25.405 111.9 25.1845 112.292 24.964C112.656 24.7683 112.998 24.5344 113.313 24.2665C113.589 24.0352 113.781 23.7186 113.858 23.3665C113.929 23.0608 113.926 22.7422 113.847 22.4382C113.769 22.1341 113.618 21.8536 113.408 21.6205C112.881 21.046 112.178 20.6642 111.41 20.536C109.988 20.221 108.788 20.6995 107.81 21.9715C107.715 22.1104 107.596 22.2308 107.459 22.327C107.303 22.404 107.124 22.4169 106.959 22.363L104.93 21.913C104.785 21.885 104.657 21.8009 104.574 21.679C104.53 21.6139 104.5 21.54 104.487 21.4623C104.474 21.3847 104.477 21.3051 104.498 21.229C104.67 20.6037 104.991 20.0294 105.434 19.555C105.932 19.0049 106.525 18.5478 107.184 18.205C107.904 17.8281 108.681 17.5698 109.484 17.44C110.343 17.3001 111.222 17.3292 112.071 17.5255ZM109.916 32.0065C110.094 32.0484 110.249 32.1585 110.347 32.3132C110.446 32.468 110.48 32.6551 110.442 32.8345L109.956 35.0395C109.94 35.1318 109.904 35.2196 109.851 35.2972C109.798 35.3747 109.73 35.4403 109.65 35.4895C109.575 35.5414 109.489 35.5771 109.399 35.5941C109.31 35.6112 109.217 35.6093 109.128 35.5885L106.95 35.089C106.857 35.0734 106.769 35.038 106.692 34.9852C106.614 34.9323 106.549 34.8634 106.5 34.783C106.45 34.707 106.415 34.6215 106.399 34.5317C106.383 34.442 106.385 34.3499 106.406 34.261L106.896 32.056C106.938 31.8773 107.048 31.7219 107.202 31.6227C107.357 31.5236 107.544 31.4886 107.724 31.525L109.916 32.0065Z" fill="#0857A3"/>
<path d="M114.474 38.635C115.016 38.5481 115.567 38.5375 116.112 38.6035C116.632 38.6653 117.138 38.8176 117.606 39.0535C118.052 39.2847 118.444 39.6066 118.758 39.9985C119.04 40.382 119.239 40.8205 119.341 41.2855C119.444 41.7506 119.447 42.2319 119.352 42.6985C119.266 43.0572 119.128 43.4014 118.943 43.72C118.763 44.0299 118.556 44.3222 118.322 44.593C118.092 44.863 117.872 45.1195 117.669 45.367C117.471 45.5976 117.295 45.8461 117.143 46.1095C117 46.3403 116.928 46.6078 116.936 46.879C116.932 47.0057 116.896 47.1295 116.832 47.239C116.799 47.2894 116.757 47.3324 116.706 47.365C116.656 47.3976 116.599 47.419 116.54 47.428L115.19 47.644C115.126 47.6554 115.062 47.6542 114.999 47.6403C114.937 47.6263 114.877 47.6001 114.825 47.563C114.772 47.5296 114.727 47.484 114.695 47.43C114.663 47.376 114.644 47.3152 114.641 47.2525C114.584 46.8337 114.615 46.4078 114.731 46.0015C114.836 45.6418 114.988 45.297 115.181 44.9755C115.37 44.6669 115.587 44.3762 115.829 44.107C116.067 43.837 116.279 43.585 116.486 43.342C116.67 43.125 116.83 42.888 116.963 42.6355C117.08 42.4181 117.122 42.1684 117.084 41.9245C117.05 41.7098 116.965 41.5065 116.836 41.3318C116.706 41.157 116.537 41.0161 116.342 40.921C115.858 40.6873 115.31 40.6208 114.785 40.732C114.309 40.8016 113.866 41.0167 113.517 41.3478C113.168 41.6789 112.93 42.1098 112.836 42.5815C112.81 42.6949 112.764 42.803 112.701 42.901C112.621 42.9864 112.512 43.0393 112.395 43.0495L110.973 43.279C110.873 43.2981 110.77 43.2771 110.685 43.2205C110.642 43.1907 110.605 43.152 110.578 43.107C110.551 43.062 110.534 43.0117 110.528 42.9595C110.485 42.5129 110.555 42.0629 110.73 41.65C110.908 41.1695 111.17 40.7246 111.504 40.336C111.87 39.9105 112.301 39.5459 112.782 39.256C113.301 38.9415 113.875 38.7306 114.474 38.635ZM116.796 48.4675C116.858 48.4577 116.921 48.4601 116.982 48.4748C117.043 48.4895 117.101 48.5161 117.152 48.553C117.205 48.5878 117.25 48.6335 117.284 48.6871C117.318 48.7406 117.34 48.8007 117.35 48.8635L117.602 50.407C117.621 50.5322 117.59 50.66 117.516 50.7628C117.442 50.8656 117.331 50.935 117.206 50.956L115.698 51.2035C115.573 51.2228 115.445 51.1921 115.343 51.118C115.29 51.0827 115.246 51.0368 115.213 50.9833C115.179 50.9298 115.158 50.8699 115.149 50.8075L114.897 49.264C114.886 49.202 114.887 49.1384 114.902 49.0772C114.917 49.0159 114.944 48.9585 114.983 48.9085C115.018 48.8563 115.064 48.8121 115.117 48.7788C115.171 48.7454 115.231 48.7237 115.293 48.715L116.796 48.4675Z" fill="#0857A3"/>
<g opacity="0.2">
<path d="M114.474 38.6352C115.016 38.5483 115.567 38.5377 116.112 38.6037C116.632 38.6656 117.138 38.8179 117.606 39.0537C118.052 39.2849 118.444 39.6068 118.758 39.9987C119.04 40.3823 119.239 40.8207 119.341 41.2858C119.444 41.7508 119.447 42.2322 119.352 42.6987C119.266 43.0574 119.128 43.4016 118.943 43.7202C118.763 44.0301 118.556 44.3224 118.322 44.5932C118.092 44.8632 117.872 45.1197 117.669 45.3672C117.471 45.5978 117.295 45.8464 117.143 46.1097C117 46.3405 116.928 46.608 116.936 46.8792C116.932 47.006 116.896 47.1297 116.832 47.2392C116.799 47.2897 116.757 47.3326 116.706 47.3652C116.656 47.3978 116.599 47.4193 116.54 47.4282L115.19 47.6442C115.126 47.6557 115.062 47.6544 114.999 47.6405C114.937 47.6266 114.877 47.6003 114.825 47.5632C114.772 47.5298 114.727 47.4842 114.695 47.4302C114.663 47.3762 114.644 47.3154 114.641 47.2527C114.584 46.834 114.615 46.4081 114.731 46.0017C114.836 45.642 114.988 45.2972 115.181 44.9757C115.37 44.6672 115.587 44.3765 115.829 44.1072C116.067 43.8372 116.279 43.5852 116.486 43.3422C116.67 43.1252 116.83 42.8882 116.963 42.6357C117.08 42.4184 117.122 42.1686 117.084 41.9247C117.05 41.71 116.965 41.5067 116.836 41.332C116.706 41.1573 116.537 41.0164 116.342 40.9212C115.858 40.6875 115.31 40.6211 114.785 40.7322C114.309 40.8018 113.866 41.0169 113.517 41.348C113.168 41.6792 112.93 42.1101 112.836 42.5817C112.81 42.6952 112.764 42.8032 112.701 42.9012C112.621 42.9866 112.512 43.0395 112.395 43.0497L110.973 43.2792C110.873 43.2984 110.77 43.2773 110.685 43.2207C110.642 43.191 110.605 43.1523 110.578 43.1073C110.551 43.0622 110.534 43.0119 110.528 42.9597C110.485 42.5132 110.555 42.0631 110.73 41.6502C110.908 41.1698 111.17 40.7248 111.504 40.3362C111.87 39.9107 112.301 39.5462 112.782 39.2562C113.301 38.9418 113.875 38.7309 114.474 38.6352ZM116.796 48.4677C116.858 48.4579 116.921 48.4604 116.982 48.4751C117.043 48.4897 117.101 48.5163 117.152 48.5532C117.205 48.5881 117.25 48.6338 117.284 48.6873C117.318 48.7408 117.34 48.8009 117.35 48.8637L117.602 50.4072C117.621 50.5324 117.59 50.6603 117.516 50.7631C117.442 50.8658 117.331 50.9352 117.206 50.9562L115.698 51.2037C115.573 51.2231 115.445 51.1924 115.343 51.1182C115.29 51.0829 115.246 51.037 115.213 50.9835C115.179 50.93 115.158 50.8701 115.149 50.8077L114.897 49.2642C114.886 49.2023 114.887 49.1386 114.902 49.0774C114.917 49.0162 114.944 48.9587 114.983 48.9087C115.018 48.8565 115.064 48.8123 115.117 48.779C115.171 48.7457 115.231 48.7239 115.293 48.7152L116.796 48.4677Z" fill="black"/>
</g>
<path d="M127.2 41.0605C127.261 41.1032 127.313 41.1579 127.353 41.2214C127.392 41.2848 127.418 41.3556 127.43 41.4295C127.444 41.5027 127.443 41.5781 127.427 41.6509C127.41 41.7237 127.379 41.7924 127.335 41.8525L126.264 43.36C126.221 43.4214 126.167 43.4734 126.103 43.5128C126.04 43.5523 125.969 43.5784 125.895 43.5895C125.822 43.6039 125.746 43.6028 125.674 43.5866C125.601 43.5703 125.532 43.5391 125.472 43.495L123.996 42.4465C123.935 42.4044 123.883 42.3498 123.844 42.2862C123.805 42.2226 123.78 42.1515 123.771 42.0775C123.757 42.0043 123.758 41.9289 123.774 41.8561C123.79 41.7833 123.821 41.7147 123.866 41.6545L124.95 40.147C125.038 40.0248 125.17 39.9421 125.318 39.9169C125.467 39.8916 125.619 39.9258 125.742 40.012L127.2 41.0605ZM133.428 30.85C133.966 31.2272 134.445 31.6822 134.85 32.2C135.245 32.6818 135.549 33.2305 135.75 33.82C135.937 34.385 136 34.9836 135.935 35.575C135.858 36.2058 135.619 36.8059 135.242 37.3165C134.961 37.7294 134.6 38.0815 134.18 38.3515C133.81 38.5833 133.408 38.7592 132.987 38.8735C132.577 38.9807 132.158 39.053 131.736 39.0895L130.539 39.1975C130.18 39.2262 129.825 39.288 129.477 39.382C129.156 39.4548 128.863 39.6171 128.631 39.85C128.526 39.9565 128.394 40.0313 128.249 40.066C128.179 40.0858 128.107 40.0888 128.036 40.0747C127.966 40.0606 127.9 40.0299 127.844 39.985L126.539 39.058C126.414 38.969 126.328 38.8351 126.3 38.6845C126.283 38.6115 126.284 38.5356 126.302 38.4629C126.32 38.3902 126.355 38.3228 126.404 38.266C126.708 37.8705 127.089 37.54 127.524 37.294C127.915 37.0803 128.333 36.9185 128.766 36.8125C129.184 36.7111 129.61 36.6464 130.04 36.619C130.463 36.592 130.859 36.5605 131.228 36.5245C131.565 36.4947 131.899 36.4283 132.222 36.3265C132.505 36.2323 132.748 36.0472 132.915 35.8C133.065 35.5913 133.163 35.3493 133.2 35.0947C133.237 34.8401 133.212 34.5803 133.127 34.3375C132.914 33.7378 132.507 33.2262 131.97 32.884C130.998 32.191 129.938 32.1685 128.789 32.8165C128.673 32.8901 128.545 32.942 128.411 32.9695C128.341 32.9744 128.27 32.9654 128.204 32.943C128.138 32.9206 128.076 32.8852 128.024 32.839L126.638 31.8535C126.587 31.8202 126.544 31.7772 126.511 31.7269C126.478 31.6767 126.455 31.6203 126.444 31.561C126.433 31.4998 126.435 31.437 126.45 31.3766C126.465 31.3162 126.492 31.2595 126.53 31.21C126.857 30.791 127.282 30.4588 127.767 30.2425C128.319 29.9927 128.909 29.8404 129.513 29.7925C130.177 29.737 130.846 29.7902 131.493 29.95C132.191 30.1183 132.849 30.4243 133.428 30.85Z" fill="#0857A3"/>
<g opacity="0.6">
<path d="M127.2 41.0605C127.261 41.1032 127.313 41.1579 127.353 41.2214C127.392 41.2848 127.418 41.3556 127.43 41.4295C127.444 41.5027 127.443 41.5781 127.427 41.6509C127.41 41.7237 127.379 41.7924 127.335 41.8525L126.264 43.36C126.221 43.4214 126.167 43.4734 126.103 43.5128C126.04 43.5523 125.969 43.5784 125.895 43.5895C125.822 43.6039 125.746 43.6028 125.674 43.5866C125.601 43.5703 125.532 43.5391 125.472 43.495L123.996 42.4465C123.935 42.4044 123.883 42.3498 123.844 42.2862C123.805 42.2226 123.78 42.1515 123.771 42.0775C123.757 42.0043 123.758 41.9289 123.774 41.8561C123.79 41.7833 123.821 41.7147 123.866 41.6545L124.95 40.147C125.038 40.0248 125.17 39.9421 125.318 39.9169C125.467 39.8916 125.619 39.9258 125.742 40.012L127.2 41.0605ZM133.428 30.85C133.966 31.2272 134.445 31.6822 134.85 32.2C135.245 32.6818 135.549 33.2305 135.75 33.82C135.937 34.385 136 34.9836 135.935 35.575C135.858 36.2058 135.619 36.8059 135.242 37.3165C134.961 37.7294 134.6 38.0815 134.18 38.3515C133.81 38.5833 133.408 38.7592 132.987 38.8735C132.577 38.9807 132.158 39.053 131.736 39.0895L130.539 39.1975C130.18 39.2262 129.825 39.288 129.477 39.382C129.156 39.4548 128.863 39.6171 128.631 39.85C128.526 39.9565 128.394 40.0313 128.249 40.066C128.179 40.0858 128.107 40.0888 128.036 40.0747C127.966 40.0606 127.9 40.0299 127.844 39.985L126.539 39.058C126.414 38.969 126.328 38.8351 126.3 38.6845C126.283 38.6115 126.284 38.5356 126.302 38.4629C126.32 38.3902 126.355 38.3228 126.404 38.266C126.708 37.8705 127.089 37.54 127.524 37.294C127.915 37.0803 128.333 36.9185 128.766 36.8125C129.184 36.7111 129.61 36.6464 130.04 36.619C130.463 36.592 130.859 36.5605 131.228 36.5245C131.565 36.4947 131.899 36.4283 132.222 36.3265C132.505 36.2323 132.748 36.0472 132.915 35.8C133.065 35.5913 133.163 35.3493 133.2 35.0947C133.237 34.8401 133.212 34.5803 133.127 34.3375C132.914 33.7378 132.507 33.2262 131.97 32.884C130.998 32.191 129.938 32.1685 128.789 32.8165C128.673 32.8901 128.545 32.942 128.411 32.9695C128.341 32.9744 128.27 32.9654 128.204 32.943C128.138 32.9206 128.076 32.8852 128.024 32.839L126.638 31.8535C126.587 31.8202 126.544 31.7772 126.511 31.7269C126.478 31.6767 126.455 31.6203 126.444 31.561C126.433 31.4998 126.435 31.437 126.45 31.3766C126.465 31.3162 126.492 31.2595 126.53 31.21C126.857 30.791 127.282 30.4588 127.767 30.2425C128.319 29.9927 128.909 29.8404 129.513 29.7925C130.177 29.737 130.846 29.7902 131.493 29.95C132.191 30.1183 132.849 30.4243 133.428 30.85Z" fill="white"/>
</g>
<path d="M93.6886 80.8945H77.7001V42.1585C77.7001 38.7941 79.0366 35.5675 81.4156 33.1885C83.7946 30.8095 87.0212 29.473 90.3856 29.473H91.8616C95.226 29.473 98.4526 30.8095 100.832 33.1885C103.211 35.5675 104.547 38.7941 104.547 42.1585V70.0585C104.541 72.9345 103.394 75.6906 101.359 77.7221C99.323 79.7536 96.5645 80.8945 93.6886 80.8945Z" fill="#263238"/>
<path d="M76.1431 174.148C75.8603 175.753 75.7098 177.378 75.6931 179.008C75.6346 181.96 75.0946 183.008 75.0226 185.429C74.9371 188.197 75.4186 189.232 76.5391 190.789C77.6596 192.346 80.5891 193.754 81.8581 191.126C83.1271 188.498 82.9426 186.775 82.5421 184.061C82.1326 181.253 82.0921 179.701 81.8401 177.563C81.6331 175.678 81.3901 174.242 81.3901 174.242L76.1431 174.148Z" fill="#263238"/>
<path d="M84.5221 154.541L74.8021 154.366C74.9461 160.855 75.9766 168.059 76.1521 174.166C76.1881 175.313 76.1251 183.071 76.5571 185.416C77.2096 188.962 81.4126 188.48 81.6376 186.361C81.8626 184.241 81.3676 175.183 81.3811 174.247C81.3406 170.341 83.1811 163.748 84.1306 156.737C84.1711 156.4 84.4771 154.879 84.5221 154.541Z" fill="#FFBE9D"/>
<path d="M97.0097 169.099C97.0097 169.099 96.6272 168.892 96.5597 169.301C96.4652 169.787 96.3212 170.791 96.1097 171.592C95.8307 172.703 95.5967 174.535 95.7632 175.444C95.9297 176.353 98.0447 177.514 99.4172 177.937C101.109 178.459 102.651 179.377 103.917 180.614C105.267 181.892 108.206 183.098 110.217 183.085C112.58 183.085 114.227 182.297 115.005 181.033C115.784 179.768 114.294 179.615 111.594 177.883L109.502 176.533C105.222 173.738 103.652 172.244 102.45 169.45L97.0097 169.099Z" fill="#263238"/>
<path d="M102.486 167.367C102.414 165.36 103.8 148.3 103.8 148.3L94.5706 152.508C96.5461 164.307 96.9691 167.092 97.0006 169.023C96.9601 169.184 96.9434 169.351 96.9511 169.518C96.9511 171.808 99.5476 173.046 101.564 174.576C103.277 175.918 105.104 177.11 107.022 178.14C108.489 178.873 111.468 178.941 111.837 178C109.38 176.124 105.807 173.316 103.854 171.174C102.9 170.166 102.558 169.378 102.486 167.367Z" fill="#FFBE9D"/>
<path d="M78.7846 91.222C75.2386 99.0025 75.2386 105.024 75.8281 114.955C76.3501 124.068 77.2186 132.1 77.2186 132.1C77.0836 133.716 74.8381 136.87 74.5456 144.016C74.2756 150.694 74.9956 159.186 74.9956 159.186C74.9956 159.186 80.0401 161.98 83.7706 159.159C83.7706 159.159 87.3706 141.973 88.4236 133.612C89.3236 126.318 90.9436 116.998 90.9436 116.998L94.3501 133.563C93.6148 135.913 93.0819 138.322 92.7571 140.763C92.2801 145.681 95.0341 155.338 95.0341 155.338C95.0341 155.338 100.245 156.891 103.427 154.069C103.427 154.069 104.615 138.369 105.06 132.447C105.654 124.513 104.403 103.039 103.427 91.6675L78.7846 91.222Z" fill="#455A64"/>
<path d="M90.9526 116.984L92.3521 104.501C92.3521 104.501 98.6251 103.664 101.469 100.991C100.655 102.265 99.5708 103.344 98.293 104.151C97.0152 104.958 95.5753 105.474 94.0756 105.662L92.0506 117.277L94.3501 133.562L90.9526 116.984Z" fill="#263238"/>
<path d="M116.355 88.153C116.614 85.8751 116.728 83.5829 116.697 81.2905C116.558 79.3105 116.202 78.9865 113.435 75.481C109.7 70.7425 106.509 66.481 103.134 62.2465C100.722 59.2225 98.1841 58.759 95.7181 58.894C93.9901 58.9885 97.3651 67.3 99.0616 72.2185L108.75 82.6495C109.05 83.0612 109.188 83.5691 109.137 84.076L108.552 92.95L111.455 96.838C111.455 96.838 115.851 93.049 116.355 88.153Z" fill="#FFBE9D"/>
<path d="M86.3761 59.164C84.4996 59.2945 81.0886 59.614 81.0886 59.614C79.1221 60.712 78.6226 61.6165 78.2581 64.2265C78.1006 65.3425 79.0096 68.308 79.7881 72.5245L81.2641 80.341L81.1021 84.22C80.3371 86.587 78.6046 89.5255 77.0746 93.859C84.5896 98.053 90.8896 98.2105 96.6046 97.459C100.961 96.8965 103.269 95.8435 104.039 94.7995C103.877 90.52 103.589 87.874 103.499 83.401C103.467 81.5245 103.58 79.6255 103.656 77.4655C106.577 75.0625 106.613 71.0665 105.006 68.4655C101.303 62.467 97.6981 58.6915 95.3131 58.885L86.3761 59.164Z" fill="#0857A3"/>
<path opacity="0.6" d="M86.3761 59.164C84.4996 59.2945 81.0886 59.614 81.0886 59.614C79.1221 60.712 78.6226 61.6165 78.2581 64.2265C78.1006 65.3425 79.0096 68.308 79.7881 72.5245L81.2641 80.341L81.1021 84.22C80.3371 86.587 78.6046 89.5255 77.0746 93.859C84.5896 98.053 90.8896 98.2105 96.6046 97.459C100.961 96.8965 103.269 95.8435 104.039 94.7995C103.877 90.52 103.589 87.874 103.499 83.401C103.467 81.5245 103.58 79.6255 103.656 77.4655C106.577 75.0625 106.613 71.0665 105.006 68.4655C101.303 62.467 97.6981 58.6915 95.3131 58.885L86.3761 59.164Z" fill="white"/>
<path opacity="0.1" d="M97.8375 77.5239C97.8375 77.5239 94.4085 80.1879 90.489 78.7974C89.3884 78.4506 88.3959 77.8256 87.6076 76.9829C86.8192 76.1402 86.2617 75.1082 85.989 73.9869C85.989 73.9869 85.575 78.4644 90.5115 79.9899C95.295 81.4614 97.8375 77.5239 97.8375 77.5239Z" fill="black"/>
<path d="M102.491 46.8745C102.342 53.3725 100.241 54.9745 99.1785 55.4245C98.1165 55.8745 96.0825 55.6045 94.1025 55.276V59.2C94.1025 59.2 96.3885 61.594 96.2175 63.3805C96.0465 65.167 92.6175 65.3695 90.0615 63.619C88.6512 62.6503 87.3755 61.4987 86.268 60.1945C86.0554 59.9429 85.9389 59.624 85.9395 59.2945V50.1145C85.9395 50.1145 84.855 51.262 82.938 49.948C82.5244 49.6841 82.1702 49.3369 81.898 48.9286C81.6258 48.5204 81.4415 48.06 81.3569 47.5766C81.2722 47.0933 81.2891 46.5977 81.4063 46.1212C81.5236 45.6447 81.7387 45.1979 82.038 44.809C82.875 43.8235 84.999 43.756 86.016 45.259C86.592 46.3795 86.6685 47.509 87.312 47.059C89.022 45.826 88.104 43.009 90.1695 41.659C90.8473 41.3053 91.5514 41.0044 92.2755 40.759C95.961 39.4855 99.156 38.4145 99.9255 35.8945C101.375 36.7225 102.671 39.211 102.491 46.8745Z" fill="#FFBE9D"/>
<path d="M95.223 52.6795C95.6952 52.6795 96.078 52.2967 96.078 51.8245C96.078 51.3523 95.6952 50.9695 95.223 50.9695C94.7508 50.9695 94.368 51.3523 94.368 51.8245C94.368 52.2967 94.7508 52.6795 95.223 52.6795Z" fill="#B16668"/>
<path d="M94.6561 45.889C94.6559 46.0651 94.604 46.2372 94.507 46.3841C94.4099 46.5309 94.2719 46.6461 94.1101 46.7154C93.9482 46.7846 93.7696 46.8049 93.5964 46.7736C93.4232 46.7424 93.2629 46.661 93.1354 46.5396C93.0079 46.4182 92.9188 46.2621 92.8792 46.0906C92.8396 45.9191 92.8511 45.7397 92.9124 45.5747C92.9736 45.4096 93.082 45.2662 93.2239 45.1621C93.3659 45.058 93.5353 44.9978 93.7111 44.989C93.833 44.9829 93.9549 45.0017 94.0693 45.0442C94.1838 45.0867 94.2884 45.152 94.3768 45.2362C94.4652 45.3204 94.5355 45.4217 94.5835 45.5339C94.6315 45.6461 94.6562 45.767 94.6561 45.889Z" fill="#263238"/>
<path d="M101.474 45.979C101.483 46.0891 101.47 46.1999 101.436 46.305C101.402 46.4101 101.347 46.5074 101.275 46.5911C101.203 46.6749 101.115 46.7435 101.016 46.7929C100.917 46.8423 100.81 46.8716 100.7 46.879C100.588 46.8892 100.476 46.8757 100.371 46.8393C100.265 46.803 100.168 46.7445 100.087 46.6679C100.006 46.5913 99.9416 46.4983 99.8991 46.395C99.8565 46.2917 99.8364 46.1806 99.84 46.069C99.8284 45.958 99.8396 45.8459 99.8728 45.7395C99.9061 45.633 99.9607 45.5345 100.033 45.4499C100.106 45.3653 100.195 45.2965 100.295 45.2476C100.396 45.1987 100.505 45.1708 100.616 45.1656C100.728 45.1604 100.839 45.1779 100.943 45.2173C101.048 45.2566 101.143 45.3168 101.223 45.3942C101.303 45.4716 101.367 45.5646 101.41 45.6675C101.453 45.7704 101.475 45.881 101.474 45.9925V45.979Z" fill="#263238"/>
<path d="M93.4996 48.202C92.7234 48.202 91.9789 47.8939 91.4297 47.3455C90.8804 46.7971 90.5713 46.0531 90.5701 45.277C90.5701 43.288 92.6221 43.288 93.4996 43.288C94.3771 43.288 96.4246 43.288 96.4246 45.277C96.4234 46.0524 96.1148 46.7957 95.5665 47.3439C95.0183 47.8922 94.275 48.2008 93.4996 48.202ZM93.4996 43.747C91.6996 43.747 91.0336 44.197 91.0336 45.277C91.0336 45.9334 91.2943 46.5629 91.7585 47.0271C92.2226 47.4912 92.8522 47.752 93.5086 47.752C94.165 47.752 94.7945 47.4912 95.2587 47.0271C95.7228 46.5629 95.9836 45.9334 95.9836 45.277C95.9656 44.1745 95.2726 43.747 93.4996 43.747Z" fill="#455A64"/>
<path d="M100.929 48.202C100.153 48.202 99.4084 47.8939 98.8591 47.3455C98.3099 46.7971 98.0007 46.0531 97.9995 45.277C97.9995 43.288 100.052 43.288 100.929 43.288C101.807 43.288 103.854 43.288 103.854 45.277C103.853 46.0524 103.544 46.7957 102.996 47.3439C102.448 47.8922 101.704 48.2008 100.929 48.202ZM100.929 43.747C99.156 43.747 98.463 44.197 98.463 45.277C98.463 45.9334 98.7238 46.5629 99.1879 47.0271C99.6521 47.4912 100.282 47.752 100.938 47.752C101.594 47.752 102.224 47.4912 102.688 47.0271C103.152 46.5629 103.413 45.9334 103.413 45.277C103.395 44.1745 102.702 43.747 100.929 43.747Z" fill="#455A64"/>
<path d="M96.879 44.332L97.023 49.7995L99.8985 48.9085L96.879 44.332Z" fill="#FF9B69"/>
<path d="M94.0981 55.2896C92.0101 55.0151 87.7126 53.7821 87.0421 52.0811C87.312 52.9407 87.8379 53.6975 88.5496 54.2501C89.8321 55.3526 94.0981 56.5901 94.0981 56.5901V55.2896Z" fill="#F28F8F"/>
<path d="M94.2016 41.6768L92.2936 42.8423C92.1432 42.5803 92.0996 42.2706 92.1716 41.9773C92.2437 41.684 92.426 41.4297 92.6806 41.2673C92.8065 41.1909 92.9465 41.1408 93.0923 41.1201C93.2381 41.0994 93.3865 41.1084 93.5287 41.1467C93.6709 41.185 93.8038 41.2517 93.9195 41.3428C94.0351 41.4339 94.1311 41.5475 94.2016 41.6768Z" fill="#263238"/>
<path d="M101.964 42.973L99.8401 42.2305C99.8812 42.0898 99.9507 41.9589 100.044 41.846C100.138 41.733 100.253 41.6404 100.384 41.5738C100.515 41.5072 100.658 41.4681 100.804 41.4587C100.95 41.4494 101.097 41.4701 101.235 41.5195C101.52 41.6219 101.755 41.8299 101.89 42.1005C102.026 42.3711 102.052 42.6835 101.964 42.973Z" fill="#263238"/>
<path d="M96.1951 45.511C96.1646 45.511 96.1344 45.5049 96.1062 45.4931C96.0781 45.4813 96.0526 45.464 96.0312 45.4422C96.0099 45.4204 95.993 45.3946 95.9818 45.3662C95.9705 45.3379 95.965 45.3075 95.9656 45.277C95.9656 44.9035 96.7036 44.6605 97.3696 44.6605C98.0356 44.6605 98.4631 44.9035 98.4631 45.277C98.4492 45.3259 98.4196 45.3689 98.379 45.3996C98.3384 45.4302 98.289 45.4467 98.2381 45.4467C98.1873 45.4467 98.1378 45.4302 98.0972 45.3996C98.0566 45.3689 98.0271 45.3259 98.0131 45.277C98.0131 45.232 97.7836 45.1195 97.3831 45.1195C97.0607 45.1127 96.7399 45.1677 96.4381 45.2815C96.4382 45.3128 96.4318 45.3438 96.4195 45.3726C96.4071 45.4013 96.389 45.4273 96.3662 45.4488C96.3434 45.4703 96.3165 45.4869 96.2871 45.4976C96.2577 45.5083 96.2264 45.5129 96.1951 45.511Z" fill="#455A64"/>
<path d="M90.8086 45.313H90.7816L85.6381 44.863C85.3978 44.6248 85.1115 44.438 84.7966 44.314L90.8356 44.872C90.8962 44.8799 90.9512 44.9111 90.9891 44.959C91.0269 45.0069 91.0445 45.0677 91.0381 45.1285C91.0276 45.1813 90.9988 45.2287 90.9569 45.2624C90.9149 45.2961 90.8624 45.314 90.8086 45.313Z" fill="#455A64"/>
<path d="M69.6901 50.677C71.3731 48.427 72.5206 46.7305 74.0551 44.827C74.9281 43.7335 75.4861 42.9505 76.3051 41.83C76.8811 41.056 77.2051 40.4035 77.8621 40.165C78.5719 39.8741 79.2116 39.4354 79.7386 38.878C80.0625 38.5196 80.3631 38.1408 80.6386 37.744C81.6031 36.4458 82.7487 35.2925 84.0406 34.3195C85.3906 33.3025 86.8981 32.5195 88.2886 31.552C89.1166 30.9715 90.0031 30.0085 88.9951 29.1085C88.6859 28.8481 88.316 28.6701 87.9196 28.591C85.4671 28.06 83.3341 28.9015 80.9356 29.5135C79.8937 29.7735 78.8748 30.1182 77.8891 30.544C77.4042 30.7357 76.9495 30.9964 76.5391 31.318C75.9652 31.8966 75.4949 32.5693 75.1486 33.307C74.1001 35.179 71.8501 36.853 70.2751 38.3335C68.4346 40.066 66.7876 41.6545 64.6861 43.5625C62.7961 45.286 60.9466 46.87 59.2141 48.751C57.7786 50.3035 58.3141 51.5185 58.5031 51.9415C59.6731 54.3445 60.9826 55.2085 62.5531 56.698C65.2531 59.2765 74.5906 66.697 77.6821 69.1495C78.3463 69.6712 78.8679 70.3523 79.1986 71.1295L79.7926 72.502C83.3206 73.15 85.6741 67.8535 82.7536 61.477C82.2699 60.4459 81.5311 59.5553 80.6071 58.8895C76.9171 56.203 69.6901 50.677 69.6901 50.677Z" fill="#FFBE9D"/>
<path d="M69.69 50.677C68.5671 52.0584 67.0706 53.0878 65.379 53.6425C65.379 53.6425 67.629 54.2185 70.7115 51.451L69.69 50.677Z" fill="#F28F8F"/>
<path d="M115.437 83.4592L114.861 82.9642C114.775 82.9075 114.677 82.8718 114.574 82.8601C114.472 82.8484 114.368 82.8609 114.272 82.8967L108.021 84.5977C107.706 84.7027 107.418 84.8744 107.176 85.1012C106.933 85.328 106.743 85.6045 106.617 85.9117L102.117 98.8852C102.063 98.9909 102.042 99.1104 102.056 99.2284C102.071 99.3463 102.12 99.4572 102.198 99.5467L102.792 100.06C102.879 100.119 102.978 100.157 103.083 100.17C103.187 100.182 103.293 100.169 103.391 100.132L109.65 98.4307C109.965 98.3257 110.253 98.154 110.496 97.9272C110.738 97.7004 110.929 97.4239 111.054 97.1167C111.954 94.5652 114.654 86.6947 115.554 84.1432C115.662 83.8237 115.608 83.5807 115.437 83.4592Z" fill="#455A64"/>
<path d="M102.707 99.385L107.207 86.4115C107.332 86.1045 107.522 85.8283 107.764 85.6022C108.007 85.3761 108.296 85.2054 108.611 85.102L114.857 83.401C115.437 83.2435 115.757 83.5765 115.55 84.1435C114.65 86.695 111.95 94.5655 111.05 97.117C110.924 97.4242 110.734 97.7007 110.491 97.9275C110.249 98.1543 109.96 98.326 109.646 98.431L103.4 100.15C102.824 100.285 102.513 99.952 102.707 99.385Z" fill="#0857A3"/>
<path d="M107.931 85.462C107.606 85.7081 107.354 86.0378 107.202 86.416L102.702 99.385C102.651 99.488 102.629 99.6034 102.64 99.7181C102.651 99.8327 102.695 99.9419 102.765 100.033L102.207 99.556C102.127 99.4676 102.076 99.3568 102.061 99.2386C102.046 99.1204 102.067 99.0003 102.122 98.8945L106.622 85.921C106.764 85.5683 106.995 85.2583 107.292 85.021L107.931 85.462Z" fill="#37474F"/>
<path d="M113.722 89.3722C113.272 90.6907 111.711 91.5727 109.128 92.1847C106.545 92.7967 105.118 95.5372 105.528 96.3697C105.937 97.2022 110.113 97.9807 111.783 97.7422C113.452 97.5037 115.126 95.0917 115.635 94.3447C116.143 93.5977 116.728 88.3867 116.193 87.6712C115.657 86.9557 114.528 87.0682 114.528 87.0682L113.722 89.3722Z" fill="#FFBE9D"/>
</svg>
