<svg width="24" height="24" viewBox="0 0 24 24" fill="none" xmlns="http://www.w3.org/2000/svg">
<g clip-path="url(#clip0_2183_3206)">
<path d="M9.57704 16.2877C9.8754 16.2877 10.1616 16.4063 10.3725 16.6172C10.5835 16.8282 10.702 17.1144 10.702 17.4127V20.1535C10.7024 20.5748 10.8699 20.9787 11.1677 21.2766C11.4655 21.5745 11.8694 21.7421 12.2906 21.7426H20.1534C20.5747 21.7421 20.9785 21.5745 21.2764 21.2766C21.5742 20.9787 21.7417 20.5748 21.742 20.1535V3.84663C21.7417 3.42538 21.5742 3.02148 21.2764 2.72357C20.9785 2.42566 20.5747 2.25806 20.1534 2.25757H12.2906C11.8694 2.25806 11.4655 2.42566 11.1677 2.72357C10.8699 3.02148 10.7024 3.42538 10.702 3.84663V6.21569C10.702 6.51406 10.5835 6.80021 10.3725 7.01119C10.1616 7.22217 9.8754 7.34069 9.57704 7.34069C9.27867 7.34069 8.99252 7.22217 8.78154 7.01119C8.57056 6.80021 8.45204 6.51406 8.45204 6.21569V3.84663C8.45328 2.82891 8.85808 1.85322 9.57767 1.13354C10.2973 0.413857 11.2729 0.00893284 12.2906 0.00756836H20.1534C21.1712 0.00893284 22.1468 0.413857 22.8664 1.13354C23.586 1.85322 23.9908 2.82891 23.992 3.84663V20.1535C23.9908 21.1712 23.586 22.1469 22.8664 22.8666C22.1468 23.5863 21.1712 23.9912 20.1534 23.9926H12.2906C11.2729 23.9912 10.2973 23.5863 9.57767 22.8666C8.85808 22.1469 8.45328 21.1712 8.45204 20.1535V17.4127C8.45204 17.1144 8.57056 16.8282 8.78154 16.6172C8.99252 16.4063 9.27867 16.2877 9.57704 16.2877Z" fill="#FF3B30"/>
<path d="M0.338909 11.1813L4.3425 7.18047C4.55077 6.97227 4.83237 6.85402 5.12684 6.85113C5.42132 6.84824 5.70519 6.96093 5.9175 7.16501C6.37219 7.60235 6.36141 8.34297 5.91516 8.78922L3.83063 10.8752H13.5806C13.879 10.8752 14.1651 10.9937 14.3761 11.2047C14.5871 11.4156 14.7056 11.7018 14.7056 12.0002C14.7056 12.2985 14.5871 12.5847 14.3761 12.7957C14.1651 13.0066 13.879 13.1252 13.5806 13.1252H3.83063L5.93531 15.2298C6.14635 15.4408 6.26493 15.727 6.26497 16.0254C6.26502 16.3238 6.14652 16.61 5.93555 16.821C5.72458 17.0321 5.43841 17.1506 5.14001 17.1507C4.84161 17.1507 4.55541 17.0322 4.34438 16.8213L0.338909 12.8177C0.231321 12.7103 0.145965 12.5828 0.0877256 12.4424C0.0294867 12.302 -0.000490189 12.1515 -0.000490189 11.9995C-0.000490189 11.8475 0.0294867 11.697 0.0877256 11.5566C0.145965 11.4162 0.231321 11.2886 0.338909 11.1813Z" fill="#FF3B30"/>
</g>
<defs>
<clipPath id="clip0_2183_3206">
<rect width="24" height="24" fill="white" transform="matrix(-1 0 0 1 24 0)"/>
</clipPath>
</defs>
</svg>
