<svg width="615" height="147" viewBox="0 0 615 147" fill="none" xmlns="http://www.w3.org/2000/svg">
<g clip-path="url(#clip0_2183_1830)">
<path d="M0 33.939C0.0581741 30.5263 0.548502 27.6298 1.89897 24.933C2.87131 22.9853 4.2841 21.7701 6.61938 21.3706C12.1653 20.4944 17.4794 18.5132 22.2474 15.5442C25.2559 13.634 27.72 11.2368 29.0995 7.9116C29.8308 6.13871 30.9362 5.29389 32.9265 5.11493C39.2052 4.56142 45.2137 2.69282 51.2805 1.11553C55.2779 0.0792603 59.35 -0.403503 63.4555 0.441325C71.23 2.04358 75.8216 6.97937 77.8743 14.4621C78.8758 18.1286 81.3482 19.735 85.0547 19.04C85.6728 18.9574 86.2574 18.7098 86.7472 18.3232C87.237 17.9366 87.614 17.4252 87.8387 16.8426C88.6241 14.9491 89.3097 14.5953 91.3458 14.974C93.0739 15.3329 94.7572 15.8814 96.3654 16.6096C98.1272 17.3559 99.8905 18.1064 101.655 18.8611C103.559 19.7079 105.632 20.1038 107.714 20.018C110.101 19.9247 112.492 20.0907 114.844 20.5133C118.276 21.1042 119.668 23.5139 118.496 26.7558C118.122 27.8944 117.492 28.9321 116.656 29.7897C115.077 31.3212 114.748 33.194 115.102 35.2291C116.174 41.3676 119.44 46.2659 123.944 50.3944C127.247 53.4005 130.203 56.7675 132.757 60.4324C133.697 61.785 133.667 61.914 132.018 62.0222C128.756 62.2344 125.486 62.3551 122.22 62.5049C102.985 63.3664 83.7499 64.1988 64.5151 65.1102C59.9069 65.3307 55.2986 65.7095 50.707 66.2005C48.056 66.4835 46.2359 65.8385 45.0558 63.2873C43.8757 60.7362 40.431 59.2338 37.3644 59.6542C34.5388 60.037 31.734 60.5573 28.925 61.0483C24.6927 61.8144 20.3264 61.0457 16.6087 58.8801C8.29812 54.1565 2.45162 47.4645 0.46955 37.8676C0.17868 36.4276 0.120503 34.9627 0 33.939Z" fill="#0857A3"/>
<path d="M294.373 101.542C281.691 101.5 267.676 100.63 253.947 97.1177C245.91 95.0618 238.298 92.0404 231.392 87.3169C224.667 82.8447 219.855 76.0166 217.899 68.173C215.009 57.1778 215.009 45.6207 217.899 34.6254C220.231 25.5945 225.624 18.8359 233.565 13.975C241.506 9.11414 250.265 6.18846 259.369 4.37811C274.524 1.36503 289.861 0.882273 305.256 1.4233C315.682 1.77115 326.078 2.74396 336.388 4.33649C340.755 5.01901 339.874 4.40308 339.94 8.28596C339.99 11.2449 339.907 14.2039 339.969 17.1587C339.994 18.4072 339.608 18.6819 338.407 18.3781C331.56 16.6359 324.568 15.5284 317.518 15.0695C304.874 14.2788 292.275 14.3413 280.075 18.3781C267.239 22.6231 260.45 31.8246 258.929 45.0838C258.26 50.9102 258.376 56.6908 259.731 62.4049C262.581 74.4322 270.368 81.6361 282.016 84.9863C291.037 87.5832 300.299 88.0702 309.615 87.9869C319.327 87.9654 329 86.7394 338.411 84.3371C339.579 84.0291 339.986 84.2788 339.965 85.5357C339.907 89.1647 339.907 92.7965 339.965 96.431C339.965 97.5755 339.496 97.9334 338.432 98.0957C323.856 100.379 309.126 101.531 294.373 101.542Z" fill="#0857A3"/>
<path d="M373.548 4.89002C380.712 4.89002 387.88 4.93996 395.044 4.85257C396.602 4.85257 397.188 5.37278 397.537 6.82938C402.507 27.2218 407.507 47.5934 412.537 67.9441C412.561 68.1497 412.607 68.352 412.675 68.5476C412.874 68.9637 412.72 69.6504 413.24 69.7461C413.855 69.8585 414.013 69.1593 414.266 68.7515C419.086 60.9386 423.895 53.1229 428.693 45.3044C436.669 32.3171 444.632 19.3201 452.582 6.31333C452.822 5.8354 453.201 5.44139 453.669 5.18295C454.137 4.92451 454.672 4.8137 455.204 4.86505C460.19 4.9358 465.177 4.89834 470.163 4.92748C470.699 4.92748 471.41 4.61951 471.746 5.17718C472.083 5.73485 471.497 6.23009 471.21 6.6962C461.179 23.11 451.147 39.521 441.113 55.9293C434.241 67.1631 427.372 78.3997 420.507 89.6391C420.027 90.5051 419.39 91.2742 418.629 91.9073C414.337 95.1825 409.654 97.6754 404.177 97.7628C394.159 97.9376 384.136 97.7961 374.113 97.8377C372.942 97.8377 372.618 97.2592 372.385 96.3104C368.025 78.5038 363.657 60.6972 359.283 42.8906L350.432 6.82522C349.967 4.92748 349.967 4.89835 351.895 4.89419C359.114 4.89419 366.332 4.89419 373.548 4.89419V4.89002Z" fill="#0857A3"/>
<path d="M150.326 64.648C150.243 65.3597 149.79 65.8216 149.449 66.3127C145.818 71.6813 142.273 77.1332 138.5 82.3811C134.503 87.9578 129.674 92.8436 125.029 97.8751C123.494 99.634 121.858 101.302 120.13 102.869C117.636 105.017 116.548 107.726 116.211 110.88C116.07 112.434 115.766 113.968 115.305 115.458C114.507 117.893 112.916 119.408 110.373 119.878C109.862 119.974 109.355 120.082 108.848 120.174C105.108 120.869 102.337 122.758 100.999 126.449C100.662 127.373 100.305 128.289 99.993 129.221C99.5634 130.674 98.7678 131.991 97.6826 133.046C90.7142 139.484 82.7984 144.253 73.503 146.526C71.5347 147.025 69.4859 147.12 67.48 146.805C65.474 146.49 63.5524 145.772 61.8308 144.694C59.9775 143.592 58.9221 142.168 59.5246 139.958C60.1853 137.461 59.3334 135.38 57.8001 133.474C57.6672 133.312 57.555 133.141 57.4178 132.983C54.0271 129.067 52.6725 124.702 54.2681 119.578C54.8208 117.789 54.3471 117.273 52.4647 117.41C51.293 117.498 50.6115 117.027 50.0505 116.112C49.0283 114.447 48.9535 112.691 49.4064 110.868C50.117 108.017 51.8207 105.732 53.6241 103.51C54.3762 102.582 55.1781 101.687 55.8513 100.709C58.6977 96.5891 59.0135 92.2776 56.7489 87.8079C55.5023 85.3109 53.7072 83.2301 51.8456 81.2116C51.1101 80.4084 50.4162 79.5469 49.7389 78.7146C49.4272 78.2984 49.0034 77.8823 49.2486 77.3204C49.4937 76.7586 50.1461 76.9043 50.6364 76.9043C54.5147 76.7156 58.404 76.5366 62.3045 76.3674C72.5182 75.9138 82.7444 75.6183 92.9456 74.9774C107.805 74.041 122.656 72.8965 137.199 69.434C141.496 68.406 145.701 67.1242 149.503 64.7812C149.607 64.6715 149.743 64.5991 149.892 64.575C150.041 64.5509 150.193 64.5766 150.326 64.648Z" fill="#233B77"/>
<path d="M205.882 51.4762V95.3823C205.882 97.8127 205.882 97.8543 203.543 97.8418C195.087 97.8002 186.755 96.8056 178.757 93.9715C173.446 92.0945 169.083 88.9774 166.856 83.5172C165.916 81.2046 165.433 78.7312 165.435 76.2342C165.406 67.6694 165.435 59.1046 165.435 50.544V6.95005C165.435 4.90248 165.435 4.89417 167.492 4.89417H203.643C205.903 4.89417 205.907 4.89416 205.907 7.25801L205.882 51.4762Z" fill="#0857A3"/>
<path d="M513.519 78.4233C513.519 72.7689 513.519 67.1159 513.519 61.4643C513.519 59.063 513.814 58.6718 516.258 58.497C521.119 58.1433 526.01 57.6647 530.801 58.8383C538.622 60.736 542.141 68.5309 538.568 75.7806C537.547 77.9097 535.792 79.5976 533.627 80.5333C532.38 81.0951 532.339 81.6611 533.008 82.7515C535.526 86.8605 537.998 90.9958 540.425 95.1575C541.763 97.4382 541.285 98.2497 538.688 98.3121C538.065 98.3121 537.441 98.3121 536.818 98.3121C535.605 98.3579 534.795 97.8335 534.167 96.7806C531.607 92.4524 528.956 88.1825 526.43 83.8418C525.748 82.6724 524.984 82.0107 523.604 82.1772C523.242 82.2021 522.878 82.2021 522.516 82.1772C519.661 82.1355 519.673 82.1355 519.69 85.0695C519.707 88.5959 519.707 92.1223 519.69 95.6486C519.69 97.7295 519.221 98.1914 517.13 98.2622C516.769 98.2622 516.407 98.2622 516.042 98.2622C513.898 98.1914 513.495 97.8002 513.49 95.6819C513.511 89.9346 513.519 84.1789 513.519 78.4233ZM519.752 70.3371C519.752 72.0517 519.752 73.765 519.752 75.4768C519.752 76.1094 519.869 76.613 520.662 76.6213C523.513 76.6587 526.372 76.9542 529.193 76.2717C530.643 75.9221 531.932 75.2895 532.754 73.9703C535.43 69.6629 532.825 64.4191 527.81 64.1195C525.532 63.9863 523.239 64.0904 520.957 64.0321C519.96 64.003 519.711 64.4691 519.744 65.3597C519.777 67.016 519.744 68.6807 519.744 70.3371H519.752Z" fill="#0857A3"/>
<path d="M479.99 98.3454C477.472 98.3454 477.19 98.1498 476.496 95.761C475.665 92.827 474.78 89.9013 474.003 86.9506C473.737 85.956 473.234 85.6355 472.241 85.6439C467.207 85.6771 462.174 85.6771 457.14 85.6439C456.68 85.6037 456.218 85.7073 455.818 85.9406C455.419 86.1738 455.101 86.5252 454.909 86.9465C453.135 90.1676 451.302 93.3555 449.474 96.5475C448.518 98.2122 445.211 99.0154 443.619 97.9708C443.445 97.8793 443.292 97.7528 443.169 97.5994C443.047 97.446 442.957 97.2689 442.905 97.0791C442.854 96.8894 442.842 96.691 442.87 96.4964C442.899 96.3019 442.967 96.1153 443.071 95.9483C443.519 95.0743 443.972 94.2003 444.454 93.3389C449.953 83.4756 455.456 73.6137 460.963 63.7532C461.491 62.8085 462.093 61.8971 462.667 60.9732C464.175 58.5511 466.407 57.7978 469.103 58.2972C471.634 58.7675 472.985 60.453 473.674 62.8501C476.67 73.5125 479.708 84.1664 482.712 94.8288C483.531 97.7628 483.061 98.3371 479.99 98.3454ZM465.193 80.0339C467.063 80.0339 468.933 80.0339 470.799 80.0339C471.701 80.0339 472.178 79.8466 471.875 78.7853C470.57 74.2075 469.315 69.6296 468.044 65.0267C467.961 64.7312 467.919 64.3484 467.566 64.3192C467.213 64.2901 467.063 64.648 466.909 64.9102C464.206 69.5658 461.505 74.2255 458.807 78.8894C458.283 79.7925 458.657 80.0713 459.592 80.0547C461.478 79.9881 463.344 80.0131 465.21 80.0131L465.193 80.0339Z" fill="#0857A3"/>
<path d="M611.921 98.3454C609.336 98.3454 609.05 98.1457 608.335 95.6653C607.504 92.827 606.694 89.9929 605.941 87.138C605.655 86.0642 605.135 85.6106 603.98 85.6356C600.969 85.7022 597.958 85.7022 594.947 85.6356C593.721 85.6106 593.214 86.0851 592.923 87.2462C592.179 90.2093 591.306 93.1391 590.48 96.0815C589.956 97.9542 589.574 98.258 587.671 98.3163C583.844 98.4328 583.428 97.9001 584.463 94.2586C587.335 84.1429 590.207 74.0258 593.077 63.9073C593.775 61.4394 594.668 59.1962 597.514 58.4221C601.142 57.4358 604.354 58.9507 605.389 62.5173C608.605 73.6124 611.721 84.7325 614.846 95.8568C615.37 97.7129 614.589 98.3371 611.921 98.3454ZM599.397 64.2194C599.28 64.3567 599.181 64.4275 599.156 64.5191C597.807 69.3411 596.46 74.1659 595.117 78.9935C594.838 79.9756 595.466 80.0006 596.143 79.9965C598.267 79.9965 600.394 79.959 602.513 80.0173C603.706 80.0506 604.051 79.7717 603.681 78.5024C602.434 74.2367 601.312 69.9376 600.132 65.6552C599.999 65.1724 599.954 64.6273 599.397 64.2194Z" fill="#0857A3"/>
<path d="M486.522 81.7443C486.522 77.2289 486.485 72.7176 486.522 68.2063C486.576 62.176 489.664 58.676 495.602 58.3097C499.475 58.0684 503.385 58.239 507.274 58.3513C509.244 58.4096 509.497 58.8299 509.501 60.8775V61.5018C509.501 63.7491 509.443 63.8573 507.12 63.9156C504.212 63.9863 501.303 63.953 498.394 63.9655C493.329 63.9905 492.743 64.5731 492.743 69.5797C492.743 70.67 492.743 71.7604 492.743 72.8508C492.743 74.8026 492.872 74.9316 494.879 74.9316C498.56 74.9316 502.246 74.9025 505.928 74.8942C506.551 74.8942 507.174 74.9358 507.793 74.9691C508.915 75.0315 509.51 75.5975 509.489 76.7503C509.489 77.2663 509.489 77.7865 509.489 78.3026C509.443 79.8591 509.015 80.3418 507.411 80.3543C503.156 80.3918 498.901 80.3751 494.642 80.3876C492.826 80.3876 492.735 80.4917 492.735 82.3436C492.735 86.651 492.735 90.9584 492.735 95.2449C492.735 97.8627 492.17 98.3579 489.477 98.3288C487.021 98.2996 486.506 97.7836 486.502 95.2657C486.514 90.7711 486.522 86.2556 486.522 81.7443Z" fill="#0857A3"/>
<path d="M555.745 77.7033C556.024 74.4364 555.513 70.412 557.092 66.5791C559.282 61.2479 563.296 58.5886 568.926 58.214C572.101 57.9976 575.246 58.4013 578.384 58.8508C579.63 59.0297 580.415 59.5458 580.337 60.9316C580.307 61.5018 580.312 62.0719 580.337 62.6379C580.366 64.0196 579.576 64.5024 578.35 64.3484C576.023 64.057 573.684 64.1236 571.353 64.0279C565.681 63.7865 562.627 66.3502 562.211 71.9934C561.83 76.2859 561.84 80.6041 562.24 84.8947C562.772 89.8472 565.149 93.1349 571.012 92.802C572.674 92.7063 574.336 92.6522 575.998 92.5856C576.879 92.5481 577.76 92.5107 578.641 92.4815C579.867 92.4399 580.474 93.0808 580.515 94.2586C580.598 96.5059 580.773 97.8751 577.49 98.1831C574.336 98.4786 571.195 98.9114 568.029 98.4744C561.48 97.5588 557.416 93.6011 556.227 87.0713C555.675 84.1997 555.862 81.2907 555.745 77.7033Z" fill="#0857A3"/>
<path d="M544.842 78.3858C544.842 72.7869 544.842 67.188 544.842 61.5892C544.842 58.78 545.133 58.5095 547.988 58.522C548.506 58.5038 549.025 58.5191 549.542 58.5678C549.91 58.5849 550.259 58.736 550.524 58.9927C550.788 59.2494 550.95 59.594 550.979 59.9619C551.049 60.5795 551.084 61.2007 551.083 61.8222C551.083 72.8147 551.083 83.8044 551.083 94.7913C551.083 95.3573 551.046 95.9274 551.017 96.4976C550.959 97.6254 550.315 98.1623 549.23 98.258L548.765 98.2913C545.224 98.4911 544.842 98.1248 544.842 94.5457V78.3858Z" fill="#0857A3"/>
</g>
<defs>
<clipPath id="clip0_2183_1830">
<rect width="615" height="147" fill="white"/>
</clipPath>
</defs>
</svg>
