<svg width="24" height="24" viewBox="0 0 24 24" fill="none" xmlns="http://www.w3.org/2000/svg">
<g clip-path="url(#clip0_2183_7586)">
<path d="M14.5312 19.2188C17.1201 19.2188 19.2188 17.1201 19.2188 14.5312C19.2188 11.9424 17.1201 9.84375 14.5312 9.84375C11.9424 9.84375 9.84375 11.9424 9.84375 14.5312C9.84375 17.1201 11.9424 19.2188 14.5312 19.2188Z" fill="#0857A3"/>
<path d="M23.5883 21.5993L19.7171 17.7281C19.217 18.5359 18.5362 19.2167 17.7284 19.7169L21.5996 23.5881C22.1488 24.1373 23.0392 24.1373 23.5883 23.5881C24.1375 23.0389 24.1375 22.1485 23.5883 21.5993ZM4.68772 0.411865L0.412109 4.68747H4.68772V0.411865ZM4.21897 12.1875H8.90675C9.28963 11.272 9.88962 10.4692 10.6422 9.84372H4.21897V12.1875Z" fill="#0857A3"/>
<path d="M8.50964 13.5938H3.51562C3.12731 13.5938 2.8125 13.2789 2.8125 12.8906V9.14062C2.8125 8.75231 3.12731 8.4375 3.51562 8.4375H14.5312C15.9443 8.4375 17.2465 8.92106 18.2812 9.73125V2.10938C18.2812 0.946266 17.335 0 16.1719 0H6.09375V5.39062C6.09375 5.77894 5.77894 6.09375 5.39062 6.09375H0V21.8906C0 23.0537 0.946266 24 2.10938 24H16.1719C17.2192 24 18.0902 23.2327 18.2534 22.2309L16.3652 20.3427C15.772 20.5302 15.1534 20.6254 14.5312 20.625C13.054 20.625 11.6979 20.0964 10.6419 19.2188H3.51562C3.12731 19.2188 2.8125 18.9039 2.8125 18.5156C2.8125 18.1273 3.12731 17.8125 3.51562 17.8125H9.39834C9.11719 17.3742 8.89359 16.9016 8.73305 16.4062H3.51562C3.12731 16.4062 2.8125 16.0914 2.8125 15.7031C2.8125 15.3148 3.12731 15 3.51562 15H8.45536C8.39119 14.2981 8.50964 13.5938 8.50964 13.5938ZM14.7656 7.03125H8.20312C7.81481 7.03125 7.5 6.71644 7.5 6.32812C7.5 5.93981 7.81481 5.625 8.20312 5.625H14.7656C15.1539 5.625 15.4688 5.93981 15.4688 6.32812C15.4688 6.71644 15.1539 7.03125 14.7656 7.03125ZM14.7656 4.21875H8.20312C7.81481 4.21875 7.5 3.90394 7.5 3.51562C7.5 3.12731 7.81481 2.8125 8.20312 2.8125H14.7656C15.1539 2.8125 15.4688 3.12731 15.4688 3.51562C15.4688 3.90394 15.1539 4.21875 14.7656 4.21875Z" fill="#0857A3"/>
</g>
<defs>
<clipPath id="clip0_2183_7586">
<rect width="24" height="24" fill="white"/>
</clipPath>
</defs>
</svg>
