<svg width="24" height="24" viewBox="0 0 24 24" fill="none" xmlns="http://www.w3.org/2000/svg">
<path d="M11.4934 0.952398C8.00486 0.952398 5.14375 3.80972 5.14375 7.302C5.14375 9.43366 6.21714 11.3272 7.84612 12.4762C5.93666 13.2401 4.29943 14.5579 3.14498 16.2599C1.99054 17.962 1.37168 19.9704 1.36801 22.027C1.33777 23.3877 3.39761 23.3877 3.37116 22.027C3.36823 20.5503 3.76044 19.0996 4.50712 17.8256C5.25379 16.5515 6.32773 15.5004 7.61755 14.7812C8.90737 14.0621 10.3661 13.7011 11.8425 13.7358C13.3188 13.7704 14.759 14.1994 16.0137 14.9782C17.1513 15.6774 18.1982 13.9691 17.0606 13.2699C16.482 12.9221 15.8705 12.6322 15.2351 12.4044C16.3155 11.6162 17.1188 10.5062 17.5298 9.23357C17.9408 7.9609 17.9385 6.5908 17.5231 5.31954C17.1077 4.04829 16.3007 2.94112 15.2175 2.15663C14.1344 1.37215 12.8307 0.950605 11.4934 0.952398ZM11.4934 2.95555C13.9047 2.95555 15.8398 4.89067 15.8398 7.302C15.8398 9.71334 13.9009 11.6409 11.4896 11.6409C9.08202 11.6409 7.14312 9.71334 7.14312 7.302C7.14312 4.89067 9.0858 2.95555 11.4934 2.95555ZM17.6275 19.9672V21.9704C17.6578 23.2705 19.6004 23.2705 19.6307 21.9704V19.9672H21.6338C22.9642 19.9672 22.9642 17.9641 21.6338 17.9641H19.6307V15.9647C19.6307 15.699 19.5252 15.4443 19.3373 15.2565C19.1495 15.0686 18.8947 14.9631 18.6291 14.9631C18.3635 14.9631 18.1087 15.0686 17.9209 15.2565C17.7331 15.4443 17.6275 15.699 17.6275 15.9647V17.9678H15.5828C14.1995 18.0283 14.2978 20.0315 15.6282 19.971L17.6275 19.9672Z" fill="white"/>
</svg>
