<svg width="24" height="24" viewBox="0 0 24 24" fill="none" xmlns="http://www.w3.org/2000/svg">
<g clip-path="url(#clip0_2183_3235)">
<path d="M20.52 9.16036C21.2025 8.49188 21.6 7.5787 21.6 6.6C21.6 4.61503 19.9852 3 18 3C17.3441 3 16.6988 3.18028 16.1332 3.52148C16.0424 3.57633 15.9771 3.66499 15.9516 3.76797C15.9261 3.87095 15.9425 3.97984 15.9973 4.07072C16.1113 4.26 16.3574 4.32033 16.5465 4.20666C16.9875 3.94064 17.4899 3.80002 18 3.80002C19.5437 3.80002 20.8 5.05608 20.8 6.6C20.8 7.55077 20.3238 8.42714 19.5246 8.94548C18.8535 9.38573 18.0027 9.51267 17.2258 9.29138C17.0156 9.23081 16.7922 9.35348 16.7312 9.56597C16.7022 9.66802 16.7148 9.77744 16.7664 9.87017C16.8179 9.96291 16.9042 10.0314 17.0062 10.0605C17.3294 10.153 17.6639 10.2 18 10.2C18.629 10.2 19.2369 10.0284 19.7767 9.71855C21.8301 10.4626 23.2 12.4013 23.2 14.6V16.6H19.5525C19.2692 13.9283 17.5884 11.5904 15.1367 10.4802C15.9169 9.68587 16.4 8.59875 16.4 7.40002C16.4 4.97381 14.4262 3 12 3C9.57384 3 7.59998 4.97381 7.59998 7.40002C7.59998 8.59912 8.08336 9.68658 8.86397 10.481C8.03888 10.8559 7.27364 11.3803 6.62461 12.0256C5.38041 13.2734 4.62328 14.8749 4.44356 16.6001H0.800016V14.6001C0.800016 13.2149 1.34105 11.9089 2.32191 10.9239C2.86186 10.3874 3.51923 9.97805 4.22705 9.7208C4.76691 10.0294 5.37305 10.2 6 10.2C6.33595 10.2 6.67031 10.1531 6.99375 10.0605C7.09577 10.0314 7.18204 9.96293 7.23361 9.8702C7.28518 9.77747 7.29782 9.66806 7.26876 9.56602C7.20783 9.35353 6.98437 9.23105 6.77423 9.29142C5.99766 9.51309 5.1473 9.38634 4.47347 8.94455C3.67622 8.42714 3.20002 7.55081 3.20002 6.6C3.20002 5.05608 4.45627 3.80002 6 3.80002C6.51014 3.80002 7.0125 3.94064 7.4535 4.20666C7.54441 4.26125 7.65325 4.2776 7.75619 4.25212C7.85913 4.22664 7.94778 4.16142 8.00273 4.07072C8.11678 3.88148 8.05584 3.63577 7.8668 3.52148C7.30116 3.18028 6.65587 3 6 3C4.01484 3 2.4 4.61503 2.4 6.6C2.4 7.57795 2.7968 8.49042 3.47737 9.1583C2.83863 9.45563 2.2563 9.86148 1.75627 10.3578C0.623812 11.4953 2.47399e-08 13.0018 2.47399e-08 14.6V17C-1.8454e-05 17.0525 0.0103148 17.1046 0.0304094 17.1531C0.0505039 17.2016 0.0799658 17.2457 0.117112 17.2829C0.154257 17.32 0.198358 17.3495 0.246895 17.3696C0.295432 17.3897 0.347452 17.4 0.399984 17.4H4.39997V20.6C4.39995 20.6525 4.41028 20.7046 4.43038 20.7531C4.45047 20.8016 4.47993 20.8457 4.51708 20.8829C4.55423 20.92 4.59833 20.9495 4.64686 20.9696C4.6954 20.9897 4.74742 21 4.79995 21H19.2C19.2525 21 19.3045 20.9897 19.353 20.9696C19.4016 20.9495 19.4457 20.92 19.4828 20.8829C19.52 20.8457 19.5494 20.8016 19.5695 20.7531C19.5896 20.7046 19.6 20.6525 19.5999 20.6V17.4H23.5999C23.6525 17.4 23.7045 17.3897 23.753 17.3696C23.8015 17.3495 23.8456 17.32 23.8828 17.2829C23.9199 17.2457 23.9494 17.2016 23.9695 17.1531C23.9896 17.1046 23.9999 17.0525 23.9999 17V14.6C24 12.2349 22.6255 10.131 20.52 9.16036ZM8.4 7.40002C8.4 5.41505 10.0148 3.80002 12 3.80002C13.9852 3.80002 15.6 5.41505 15.6 7.40002C15.6 9.38498 13.9852 11 12 11C10.0148 11 8.4 9.38494 8.4 7.40002ZM18.8 20.2H5.19998V17.4C5.19998 15.5863 5.907 13.8783 7.18983 12.5916C7.86562 11.9194 8.68491 11.398 9.5633 11.0607C10.2615 11.527 11.0992 11.8 12 11.8C12.9022 11.8 13.7415 11.5262 14.4403 11.0585C17.0549 12.0631 18.8 14.5838 18.8 17.4V20.2Z" fill="#475569"/>
</g>
<defs>
<clipPath id="clip0_2183_3235">
<rect width="24" height="24" fill="white"/>
</clipPath>
</defs>
</svg>
