<svg width="64" height="64" viewBox="0 0 64 64" fill="none" xmlns="http://www.w3.org/2000/svg">
<g filter="url(#filter0_d_2183_9303)">
<rect x="12" y="6" width="40" height="40" rx="12" fill="url(#paint0_linear_2183_9303)"/>
</g>
<path d="M20.3335 37.6667L22.0409 31.4559C20.7191 29.1716 20.1912 26.517 20.5392 23.9037C20.8872 21.2904 22.0916 18.8643 23.9657 17.0017C25.8397 15.1391 28.2787 13.9439 30.9046 13.6015C33.5304 13.2591 36.1964 13.7885 38.4892 15.1078C40.782 16.427 42.5735 18.4624 43.586 20.8983C44.5985 23.3342 44.7754 26.0345 44.0893 28.5807C43.4032 31.1269 41.8924 33.3766 39.7912 34.9811C37.6899 36.5856 35.1156 37.4552 32.4673 37.4552H32.4631C30.4542 37.4536 28.4776 36.9525 26.7128 35.9973L20.3335 37.6667ZM27.0079 33.8328L27.373 34.0485C29.479 35.2894 31.9689 35.7187 34.3716 35.2552C36.7742 34.7917 38.9227 33.4676 40.4106 31.5334C41.8985 29.5992 42.6224 27.1891 42.4453 24.7594C42.2683 22.3297 41.2026 20.0488 39.4499 18.3486C37.6973 16.6484 35.3792 15.6467 32.9346 15.5331C30.4899 15.4196 28.0883 16.2021 26.1842 17.7325C24.2801 19.263 23.0057 21.4351 22.6021 23.8379C22.1986 26.2407 22.694 28.7073 23.9945 30.771L24.2331 31.147L23.2213 34.8215L27.0062 33.8328H27.0079ZM35.5946 31.231C35.1998 31.2331 34.8072 31.1736 34.431 31.0547C33.8488 30.8749 33.2767 30.6645 32.7169 30.4244C30.6587 29.4154 28.9052 27.8825 27.6344 25.9812L27.5846 25.9081C26.8737 25.0208 26.445 23.9425 26.3536 22.8112C26.3428 22.3594 26.4253 21.9103 26.596 21.4916C26.7667 21.0729 27.022 20.6936 27.346 20.3772L27.405 20.3134C27.5052 20.1989 27.6282 20.1065 27.7663 20.042C27.9043 19.9776 28.0544 19.9425 28.2069 19.9391C28.3999 19.9391 28.604 19.9391 28.7827 19.95H28.878C29.0635 19.95 29.2608 19.9894 29.4598 20.4628C29.5441 20.655 29.6562 20.937 29.7802 21.2366V21.245C30.039 21.8728 30.3324 22.5837 30.383 22.6853C30.4311 22.7636 30.4586 22.8527 30.463 22.9443C30.4674 23.036 30.4486 23.1273 30.4083 23.2098L30.367 23.2937C30.3017 23.4454 30.2145 23.5868 30.1082 23.7134C30.0576 23.7721 30.0053 23.8351 29.953 23.8989C29.8518 24.0223 29.7473 24.1507 29.6571 24.2346C29.5121 24.379 29.3476 24.5426 29.5247 24.8456C29.9758 25.6155 30.5396 26.3142 31.1975 26.9187C31.8533 27.5057 32.6042 27.9779 33.4184 28.3152C33.5027 28.3513 33.5668 28.379 33.6157 28.4034C33.7157 28.4603 33.8277 28.4934 33.9428 28.4999C34.006 28.4979 34.0679 28.4817 34.1239 28.4527C34.18 28.4236 34.2287 28.3824 34.2666 28.332C34.4049 28.1742 35.0094 27.4709 35.2185 27.157C35.252 27.0913 35.3025 27.0357 35.3647 26.9959C35.4269 26.9561 35.4987 26.9335 35.5726 26.9304C35.6839 26.938 35.793 26.9641 35.8956 27.0076C36.1662 27.1067 37.6063 27.81 37.9495 27.9812L38.1181 28.0651C38.2759 28.118 38.4173 28.2105 38.5287 28.3337C38.6119 28.8161 38.5509 29.3123 38.3534 29.7605C38.1328 30.1254 37.8384 30.4407 37.4889 30.6864C37.1394 30.932 36.7423 31.1026 36.323 31.1873C36.0817 31.2207 35.8382 31.2361 35.5946 31.2335V31.231Z" fill="#FDFDFD"/>
<defs>
<filter id="filter0_d_2183_9303" x="0" y="0" width="64" height="64" filterUnits="userSpaceOnUse" color-interpolation-filters="sRGB">
<feFlood flood-opacity="0" result="BackgroundImageFix"/>
<feColorMatrix in="SourceAlpha" type="matrix" values="0 0 0 0 0 0 0 0 0 0 0 0 0 0 0 0 0 0 127 0" result="hardAlpha"/>
<feOffset dy="6"/>
<feGaussianBlur stdDeviation="6"/>
<feColorMatrix type="matrix" values="0 0 0 0 0.239216 0 0 0 0 0.752941 0 0 0 0 0.309804 0 0 0 0.2 0"/>
<feBlend mode="normal" in2="BackgroundImageFix" result="effect1_dropShadow_2183_9303"/>
<feBlend mode="normal" in="SourceGraphic" in2="effect1_dropShadow_2183_9303" result="shape"/>
</filter>
<linearGradient id="paint0_linear_2183_9303" x1="49.5" y1="11" x2="12" y2="46" gradientUnits="userSpaceOnUse">
<stop stop-color="#5BD066"/>
<stop offset="1" stop-color="#27B43E"/>
</linearGradient>
</defs>
</svg>
